<svg xmlns="http://www.w3.org/2000/svg" width="65" height="64" viewBox="0 0 65 64" fill="none"><circle cx="32.1572" cy="32" r="32" fill="#BF3F40"></circle><mask id="mask0_81_652" style="mask-type:luminance" maskUnits="userSpaceOnUse" x="0" y="0" width="65" height="64"><circle cx="32.1572" cy="32" r="32" fill="white"></circle></mask><g mask="url(#mask0_81_652)"></g><circle cx="32.1572" cy="31.9999" r="27.3067" fill="#412E3E" stroke="#979797" stroke-width="0.853333"></circle><mask id="mask1_81_652" style="mask-type:luminance" maskUnits="userSpaceOnUse" x="4" y="4" width="56" height="56"><circle cx="32.1572" cy="31.9999" r="27.3067" fill="white" stroke="white" stroke-width="0.853333"></circle></mask><g mask="url(#mask1_81_652)"><rect x="-10.083" y="25.1387" width="83.6267" height="11.0933" fill="#6F717F"></rect><rect x="-10.083" y="27.6987" width="81.92" height="5.12" fill="#412E3E"></rect><rect x="-10.083" y="24.2854" width="81.92" height="2.56" fill="#412E3E"></rect><rect x="-10.083" y="33.6721" width="83.6267" height="2.56" fill="#412E3E"></rect><rect width="83.6267" height="17.0667" transform="matrix(1 0 0 -1 -10.083 25.1389)" fill="#461108"></rect><rect width="83.6267" height="2.56" transform="matrix(1 0 0 -1 -10.083 25.1389)" fill="#E07238"></rect><rect width="83.6267" height="2.56" transform="matrix(1 0 0 -1 -10.083 21.7256)" fill="#E07238"></rect><rect width="83.6267" height="4.26667" transform="matrix(1 0 0 -1 -10.083 18.3123)" fill="#E07238"></rect><rect width="83.6267" height="4.26667" transform="matrix(1 0 0 -1 -10.083 12.3389)" fill="#E07238"></rect><circle cx="76.9568" cy="18.3123" r="17.0667" fill="#E9D53C"></circle><circle cx="15.5169" cy="13.1922" r="17.0667" fill="#E9D53C"></circle><circle cx="15.517" cy="13.1921" r="16.2133" fill="#86514D"></circle><circle cx="15.5171" cy="13.1922" r="13.6533" fill="#6F717F"></circle><circle cx="15.517" cy="13.1921" r="9.38667" fill="#CDCDDC"></circle><circle cx="15.5171" cy="13.1921" r="6.82667" fill="#E9B687"></circle><circle cx="15.517" cy="13.1923" r="5.12" fill="#F6E492"></circle><circle cx="15.5168" cy="13.1921" r="3.41333" fill="#EFF0C6"></circle><rect x="-10.083" y="36.2322" width="83.6267" height="17.0667" fill="#461108"></rect><rect x="-10.083" y="36.2322" width="83.6267" height="2.56" fill="#E07238"></rect><rect x="-10.083" y="39.6455" width="83.6267" height="2.56" fill="#E07238"></rect><rect x="-10.083" y="43.0588" width="83.6267" height="3.41333" fill="#E07238"></rect><rect x="-10.083" y="48.1788" width="83.6267" height="5.12" fill="#E07238"></rect><circle cx="12.9568" cy="58.4188" r="17.0667" fill="#E9D53C"></circle><circle cx="12.957" cy="58.4189" r="16.2133" fill="#86514D"></circle><circle cx="12.957" cy="58.4188" r="13.6533" fill="#6F717F"></circle><circle cx="12.957" cy="58.4189" r="9.38667" fill="#CDCDDC"></circle><circle cx="12.957" cy="58.4188" r="6.82667" fill="#E9B687"></circle><circle cx="12.9569" cy="58.4188" r="5.12" fill="#F6E492"></circle><circle cx="12.9568" cy="58.4188" r="3.41333" fill="#EFF0C6"></circle><circle cx="39.4104" cy="33.6721" r="17.0667" fill="#E9D53C"></circle><circle cx="39.4106" cy="33.6721" r="16.2133" fill="#86514D"></circle><circle cx="39.4107" cy="33.6721" r="13.6533" fill="#6F717F"></circle><circle cx="39.4106" cy="33.6721" r="9.38667" fill="#CDCDDC"></circle><circle cx="39.4107" cy="33.6721" r="6.82667" fill="#E9B687"></circle><circle cx="39.4105" cy="33.6722" r="5.12" fill="#F6E492"></circle><circle cx="39.4104" cy="33.6721" r="3.41333" fill="#EFF0C6"></circle></g></svg>