<svg xmlns="http://www.w3.org/2000/svg" width="65" height="64" viewBox="0 0 65 64" fill="none"><circle cx="32.1572" cy="32" r="32" fill="#BF3F40"></circle><mask id="mask0_81_260" style="mask-type:luminance" maskUnits="userSpaceOnUse" x="0" y="0" width="65" height="64"><circle cx="32.1572" cy="32" r="32" fill="white"></circle></mask><g mask="url(#mask0_81_260)"><rect x="0.157227" width="64" height="7" fill="#BF3F40"></rect><rect x="0.157227" y="58" width="65" height="6" fill="#BF3F40"></rect></g><circle cx="32.1572" cy="31.9999" r="27.7333" fill="#281527"></circle><mask id="mask1_81_260" style="mask-type:luminance" maskUnits="userSpaceOnUse" x="4" y="4" width="56" height="56"><circle cx="32.1572" cy="31.9999" r="27.7333" fill="white"></circle></mask><g mask="url(#mask1_81_260)"><path fill-rule="evenodd" clip-rule="evenodd" d="M32.1936 13C32.1936 13 31.0818 14.3504 29.7413 15.1584C28.9384 15.6423 27.3896 16.4914 25.9863 18.2614C25.0467 19.4466 24.1724 21.0446 23.6309 23.2224C23.5315 23.6222 20.7078 23.4074 18.267 25.1133C15.8262 26.8192 15.718 28.4246 14.565 29.6766C13.4119 30.9287 11.4512 32.001 11.4512 32.001C11.4512 32.001 12.6422 32.4196 14.565 34.4879C16.4877 36.5562 15.5885 36.5562 17.6414 38.5942C19.6942 40.6321 23.333 40.9001 23.333 40.9001C23.333 40.9001 23.6636 44.0835 25.3576 46.3344C27.0516 48.5852 28.8231 48.9235 30.1101 49.87C31.3525 50.7837 32.1935 52 32.1935 52C32.1935 52 33.0944 50.7613 34.4686 49.87C35.8429 48.9787 37.8013 47.4919 38.6258 46.3344C40.514 43.6836 40.7857 41.2206 40.7857 41.2206C40.7857 41.2206 43.1231 41.2253 45.4607 39.6765C47.7982 38.1277 48.4983 35.9753 49.781 34.7975C51.0637 33.6197 52.8629 32.001 52.8629 32.001C52.8629 32.001 51.1831 31.3273 49.781 30.1423C48.379 28.9573 47.8709 27.2046 45.9243 25.6828C43.9778 24.1609 41.0952 23.9161 41.0952 23.9161C41.0952 23.9161 40.2104 20.4946 39.145 18.9376C38.0796 17.3806 36.9093 16.072 35.1026 15.1584C33.2959 14.2447 32.1936 13 32.1936 13Z" fill="#EBDFDE"></path><path fill-rule="evenodd" clip-rule="evenodd" d="M32.1937 14.8206C32.1937 14.8206 31.0234 16.2615 29.8356 16.9774C29.1242 17.4062 27.7518 18.1586 26.5084 19.727C25.6758 20.7771 24.9011 22.1931 24.4213 24.1228C24.3332 24.4771 21.8312 24.2867 19.6685 25.7983C17.5057 27.3098 17.4099 28.7324 16.3882 29.8418C15.3665 30.9511 13.4585 32.001 13.4585 32.001C13.4585 32.001 14.6845 32.2722 16.3882 34.1049C18.0919 35.9376 17.2951 35.9376 19.1141 37.7434C20.9331 39.5491 24.1573 39.7866 24.1573 39.7866C24.1573 39.7866 24.4503 42.6074 25.9513 44.6018C27.4523 46.5962 29.022 46.896 30.1623 47.7347C31.2632 48.5443 32.1938 49.8221 32.1938 49.8221C32.1938 49.8221 32.8067 48.5244 34.0244 47.7347C35.2421 46.9449 36.9774 45.6274 37.7079 44.6018C39.381 42.253 39.6218 40.0706 39.6218 40.0706C39.6218 40.0706 41.6929 40.0748 43.7642 38.7024C45.8354 37.33 46.1592 35.8862 47.5923 34.5246C49.0255 33.163 50.8176 32.001 50.8176 32.001C50.8176 32.001 49.562 31.7726 47.5923 30.083C45.6227 28.3935 45.8998 27.6514 44.175 26.3029C42.4502 24.9544 39.896 24.7374 39.896 24.7374C39.896 24.7374 39.1121 21.7058 38.168 20.3261C37.224 18.9465 36.187 17.787 34.5861 16.9774C32.9852 16.1679 32.1937 14.8206 32.1937 14.8206Z" fill="#BF3F40"></path><ellipse cx="31.8881" cy="31.8732" rx="5.2211" ry="5.32759" fill="#281527"></ellipse><ellipse cx="32.0368" cy="25.3938" rx="2.40751" ry="2.35884" transform="rotate(-45 32.0368 25.3938)" fill="#EBDFDE"></ellipse><ellipse cx="32.0369" cy="38.6081" rx="2.40751" ry="2.35884" transform="rotate(135 32.0369 38.6081)" fill="#EBDFDE"></ellipse><ellipse cx="36.7088" cy="27.3291" rx="2.40751" ry="2.35884" fill="#EBDFDE"></ellipse><ellipse cx="27.365" cy="36.6731" rx="2.40751" ry="2.35884" transform="rotate(180 27.365 36.6731)" fill="#EBDFDE"></ellipse><ellipse cx="38.6443" cy="32.0009" rx="2.40751" ry="2.35884" transform="rotate(45 38.6443 32.0009)" fill="#EBDFDE"></ellipse><ellipse cx="25.4299" cy="32.001" rx="2.40751" ry="2.35884" transform="rotate(-135 25.4299 32.001)" fill="#EBDFDE"></ellipse><ellipse cx="36.709" cy="36.6729" rx="2.40751" ry="2.35884" transform="rotate(90 36.709 36.6729)" fill="#EBDFDE"></ellipse><ellipse cx="27.3647" cy="27.3291" rx="2.40751" ry="2.35884" transform="rotate(-90 27.3647 27.3291)" fill="#EBDFDE"></ellipse><path fill-rule="evenodd" clip-rule="evenodd" d="M35.6172 51.8955C35.6172 51.8955 39.5259 51.8955 41.6007 51.8955C42.5964 51.8955 43.4377 50.9743 44.0434 50.0159C44.4862 49.3154 45.7378 49.2857 46.1955 49.9766C46.8398 50.9489 47.7037 51.8955 48.6249 51.8955C50.5188 51.8955 52.8633 51.8955 52.8633 51.8955C52.8633 51.8955 52.8633 51.3238 52.8633 49.9715C52.8633 47.4827 49.8609 47.6863 49.8609 46.4684C49.8609 45.2506 52.8633 46.2031 52.8633 42.147C52.8633 38.0909 52.8633 35.8355 52.8633 35.8355C52.8633 35.8355 51.8001 36.2498 50.6855 37.6723C49.571 39.0948 49.6715 40.0493 47.3896 41.5021C45.1077 42.9549 42.0988 43.4997 42.0988 43.4997C42.0988 43.4997 41.3182 46.7287 39.7086 48.587C38.0991 50.4453 35.6172 51.8955 35.6172 51.8955Z" fill="#EBDFDE"></path><ellipse cx="31.9874" cy="31.9585" rx="1.74037" ry="1.77586" fill="#86514D"></ellipse><path fill-rule="evenodd" clip-rule="evenodd" d="M28.6973 13.1045C28.6973 13.1045 24.7886 13.1045 22.7137 13.1045C21.718 13.1045 20.8768 14.0257 20.2711 14.9841C19.8283 15.6846 18.5767 15.7143 18.1189 15.0234C17.4746 14.0511 16.6108 13.1045 15.6895 13.1045C13.7957 13.1045 11.4512 13.1045 11.4512 13.1045C11.4512 13.1045 11.4512 13.5327 11.4512 15.0285C11.4512 17.5173 14.4535 17.3137 14.4535 18.5316C14.4535 19.7494 11.4512 18.7969 11.4512 22.853C11.4512 26.9091 11.4512 29.1645 11.4512 29.1645C11.4512 29.1645 12.5144 28.7502 13.6289 27.3277C14.7435 25.9052 14.643 24.9507 16.9249 23.4979C19.2068 22.0451 22.2156 21.5003 22.2156 21.5003C22.2156 21.5003 22.9962 18.2713 24.6058 16.413C26.2154 14.5547 28.6973 13.1045 28.6973 13.1045Z" fill="#EBDFDE"></path><path fill-rule="evenodd" clip-rule="evenodd" d="M35.6172 13.1045C35.6172 13.1045 39.5259 13.1045 41.6007 13.1045C42.5964 13.1045 43.4377 14.0257 44.0434 14.9841C44.4862 15.6846 45.7378 15.7143 46.1955 15.0234C46.8398 14.0511 47.7037 13.1045 48.6249 13.1045C50.5188 13.1045 52.8633 13.1045 52.8633 13.1045C52.8633 13.1045 52.8633 13.6292 52.8633 15.0285C52.8633 17.5173 49.8609 17.3137 49.8609 18.5316C49.8609 19.7494 52.8633 18.7969 52.8633 22.853C52.8633 26.9091 52.8633 29.1645 52.8633 29.1645C52.8633 29.1645 51.8001 28.7502 50.6855 27.3277C49.571 25.9052 48.6249 24.9045 46.6499 23.7754C44.675 22.6464 42.3969 22.2848 42.3969 22.2848C42.3969 22.2848 41.3182 18.2713 39.7086 16.413C38.0991 14.5547 35.6172 13.1045 35.6172 13.1045Z" fill="#EBDFDE"></path><path fill-rule="evenodd" clip-rule="evenodd" d="M28.6973 51.8955C28.6973 51.8955 24.7886 51.8955 22.7137 51.8955C21.718 51.8955 20.8768 50.9743 20.2711 50.0159C19.8283 49.3154 18.5767 49.2857 18.1189 49.9766C17.4746 50.9489 16.6108 51.8955 15.6895 51.8955C13.7957 51.8955 11.4512 51.8955 11.4512 51.8955C11.4512 51.8955 11.4512 51.3238 11.4512 49.9715C11.4512 47.4827 14.4535 47.6863 14.4535 46.4684C14.4535 45.2506 11.4512 46.2031 11.4512 42.147C11.4512 38.0909 11.4512 35.8355 11.4512 35.8355C11.4512 35.8355 12.5144 36.2498 13.6289 37.6723C14.7435 39.0948 14.643 40.0493 16.9249 41.5021C19.2068 42.9549 22.2156 43.4997 22.2156 43.4997C22.2156 43.4997 22.9962 46.7287 24.6058 48.587C26.2154 50.4453 28.6973 51.8955 28.6973 51.8955Z" fill="#EBDFDE"></path><path fill-rule="evenodd" clip-rule="evenodd" d="M75.488 13C75.488 13 74.3762 14.3504 73.0358 15.1584C72.2329 15.6423 70.684 16.4914 69.2807 18.2614C68.3411 19.4466 67.4668 21.0446 66.9254 23.2224C66.8259 23.6222 64.0022 23.4074 61.5614 25.1133C59.1207 26.8192 59.0125 28.4246 57.8594 29.6766C56.7063 30.9287 54.7456 32.001 54.7456 32.001C54.7456 32.001 55.9367 32.4196 57.8594 34.4879C59.7822 36.5562 58.8829 36.5562 60.9358 38.5942C62.9887 40.6321 66.6274 40.9001 66.6274 40.9001C66.6274 40.9001 66.958 44.0835 68.652 46.3344C70.346 48.5852 72.1175 48.9235 73.4045 49.87C74.6469 50.7837 75.488 52 75.488 52C75.488 52 76.3888 50.7613 77.7631 49.87C79.1373 48.9787 81.0957 47.4919 81.9202 46.3344C83.8084 43.6836 84.0801 41.2206 84.0801 41.2206C84.0801 41.2206 86.4176 41.2253 88.7551 39.6765C91.0927 38.1277 91.7928 35.9753 93.0755 34.7975C94.3581 33.6197 96.1574 32.001 96.1574 32.001C96.1574 32.001 94.4775 31.3273 93.0755 30.1423C91.6734 28.9573 91.1653 27.2046 89.2188 25.6828C87.2722 24.1609 84.3896 23.9161 84.3896 23.9161C84.3896 23.9161 83.5049 20.4946 82.4395 18.9376C81.3741 17.3806 80.2037 16.072 78.397 15.1584C76.5903 14.2447 75.488 13 75.488 13Z" fill="#EBDFDE"></path><path fill-rule="evenodd" clip-rule="evenodd" d="M75.4877 14.8206C75.4877 14.8206 74.3173 16.2615 73.1296 16.9774C72.4181 17.4062 71.0457 18.1586 69.8023 19.727C68.9698 20.7771 68.195 22.1931 67.7153 24.1228C67.6272 24.4771 65.1251 24.2867 62.9624 25.7983C60.7997 27.3098 60.7038 28.7324 59.6821 29.8418C58.6604 30.9511 56.7524 32.001 56.7524 32.001C56.7524 32.001 57.9784 32.2722 59.6821 34.1049C61.3858 35.9376 60.589 35.9376 62.408 37.7434C64.227 39.5491 67.4512 39.7866 67.4512 39.7866C67.4512 39.7866 67.7442 42.6074 69.2452 44.6018C70.7462 46.5962 72.3159 46.896 73.4563 47.7347C74.5572 48.5443 75.4877 49.8221 75.4877 49.8221C75.4877 49.8221 76.1006 48.5244 77.3183 47.7347C78.536 46.9449 80.2713 45.6274 81.0019 44.6018C82.675 42.253 82.9157 40.0706 82.9157 40.0706C82.9157 40.0706 84.9869 40.0748 87.0581 38.7024C89.1294 37.33 89.4531 35.8862 90.8863 34.5246C92.3195 33.163 94.1116 32.001 94.1116 32.001C94.1116 32.001 92.8559 31.7726 90.8863 30.083C88.9167 28.3935 89.1937 27.6514 87.469 26.3029C85.7442 24.9544 83.19 24.7374 83.19 24.7374C83.19 24.7374 82.406 21.7058 81.462 20.3261C80.5179 18.9465 79.4809 17.787 77.88 16.9774C76.2792 16.1679 75.4877 14.8206 75.4877 14.8206Z" fill="#BF3F40"></path><path fill-rule="evenodd" clip-rule="evenodd" d="M71.9917 13.1045C71.9917 13.1045 68.083 13.1045 66.0081 13.1045C65.0125 13.1045 64.1712 14.0257 63.5655 14.9841C63.1227 15.6846 61.8711 15.7143 61.4134 15.0234C60.7691 14.0511 59.9052 13.1045 58.984 13.1045C57.0901 13.1045 54.7456 13.1045 54.7456 13.1045C54.7456 13.1045 54.7456 13.5327 54.7456 15.0285C54.7456 17.5173 57.748 17.3137 57.748 18.5316C57.748 19.7494 54.7456 18.7969 54.7456 22.853C54.7456 26.9091 54.7456 29.1645 54.7456 29.1645C54.7456 29.1645 55.8088 28.7502 56.9233 27.3277C58.0379 25.9052 57.9374 24.9507 60.2193 23.4979C62.5012 22.0451 65.51 21.5003 65.51 21.5003C65.51 21.5003 66.2907 18.2713 67.9002 16.413C69.5098 14.5547 71.9917 13.1045 71.9917 13.1045Z" fill="#EBDFDE"></path><path fill-rule="evenodd" clip-rule="evenodd" d="M71.9917 51.8955C71.9917 51.8955 68.083 51.8955 66.0081 51.8955C65.0125 51.8955 64.1712 50.9743 63.5655 50.0159C63.1227 49.3154 61.8711 49.2857 61.4134 49.9766C60.7691 50.9489 59.9052 51.8955 58.984 51.8955C57.0901 51.8955 54.7456 51.8955 54.7456 51.8955C54.7456 51.8955 54.7456 51.3238 54.7456 49.9715C54.7456 47.4827 57.748 47.6863 57.748 46.4684C57.748 45.2506 54.7456 46.2031 54.7456 42.147C54.7456 38.0909 54.7456 35.8355 54.7456 35.8355C54.7456 35.8355 55.8088 36.2498 56.9233 37.6723C58.0379 39.0948 57.9374 40.0493 60.2193 41.5021C62.5012 42.9549 65.51 43.4997 65.51 43.4997C65.51 43.4997 66.2907 46.7287 67.9002 48.587C69.5098 50.4453 71.9917 51.8955 71.9917 51.8955Z" fill="#EBDFDE"></path><path fill-rule="evenodd" clip-rule="evenodd" d="M-11.1004 13C-11.1004 13 -12.2121 14.3504 -13.5526 15.1584C-14.3555 15.6423 -15.9044 16.4914 -17.3076 18.2614C-18.2472 19.4466 -19.1216 21.0446 -19.663 23.2224C-19.7624 23.6222 -22.5862 23.4074 -25.027 25.1133C-27.4677 26.8192 -27.5759 28.4246 -28.729 29.6766C-29.8821 30.9287 -31.8428 32.001 -31.8428 32.001C-31.8428 32.001 -30.6517 32.4196 -28.729 34.4879C-26.8062 36.5562 -27.7054 36.5562 -25.6526 38.5942C-23.5997 40.6321 -19.961 40.9001 -19.961 40.9001C-19.961 40.9001 -19.6303 44.0835 -17.9363 46.3344C-16.2424 48.5852 -14.4709 48.9235 -13.1839 49.87C-11.9415 50.7837 -11.1004 52 -11.1004 52C-11.1004 52 -10.1996 50.7613 -8.8253 49.87C-7.45103 48.9787 -5.49266 47.4919 -4.66817 46.3344C-2.77998 43.6836 -2.50828 41.2206 -2.50828 41.2206C-2.50828 41.2206 -0.170798 41.2253 2.16674 39.6765C4.50428 38.1277 5.2044 35.9753 6.48708 34.7975C7.76976 33.6197 9.56899 32.001 9.56899 32.001C9.56899 32.001 7.88911 31.3273 6.48708 30.1423C5.08505 28.9573 4.57692 27.2046 2.63038 25.6828C0.68384 24.1609 -2.19876 23.9161 -2.19876 23.9161C-2.19876 23.9161 -3.08351 20.4946 -4.14891 18.9376C-5.21432 17.3806 -6.38468 16.072 -8.19136 15.1584C-9.99805 14.2447 -11.1004 13 -11.1004 13Z" fill="#EBDFDE"></path><path fill-rule="evenodd" clip-rule="evenodd" d="M-11.1002 14.8206C-11.1002 14.8206 -12.2706 16.2615 -13.4583 16.9774C-14.1698 17.4062 -15.5422 18.1586 -16.7856 19.727C-17.6181 20.7771 -18.3929 22.1931 -18.8726 24.1228C-18.9607 24.4771 -21.4628 24.2867 -23.6255 25.7983C-25.7882 27.3098 -25.8841 28.7324 -26.9058 29.8418C-27.9275 30.9511 -29.8354 32.001 -29.8354 32.001C-29.8354 32.001 -28.6095 32.2722 -26.9058 34.1049C-25.2021 35.9376 -25.9988 35.9376 -24.1798 37.7434C-22.3608 39.5491 -19.1367 39.7866 -19.1367 39.7866C-19.1367 39.7866 -18.8437 42.6074 -17.3427 44.6018C-15.8417 46.5962 -14.272 46.896 -13.1316 47.7347C-12.0307 48.5443 -11.1002 49.8221 -11.1002 49.8221C-11.1002 49.8221 -10.4873 48.5244 -9.26957 47.7347C-8.05185 46.9449 -6.31658 45.6274 -5.58602 44.6018C-3.91294 42.253 -3.67219 40.0706 -3.67219 40.0706C-3.67219 40.0706 -1.601 40.0748 0.470243 38.7024C2.54148 37.33 2.86523 35.8862 4.2984 34.5246C5.73157 33.163 7.5237 32.001 7.5237 32.001C7.5237 32.001 6.26802 31.7726 4.2984 30.083C2.32879 28.3935 2.60585 27.6514 0.881065 26.3029C-0.843723 24.9544 -3.39793 24.7374 -3.39793 24.7374C-3.39793 24.7374 -4.18189 21.7058 -5.12592 20.3261C-6.06995 18.9465 -7.10699 17.787 -8.70785 16.9774C-10.3087 16.1679 -11.1002 14.8206 -11.1002 14.8206Z" fill="#BF3F40"></path><rect width="82" height="6.125" transform="matrix(1 0 0 -1 -14.8428 58)" fill="#EBDFDE"></rect><rect width="82" height="2.625" transform="matrix(1 0 0 -1 -14.8428 53.625)" fill="#281527"></rect><rect width="3.31313" height="2.625" transform="matrix(1 0 0 -1 4.20801 57.125)" fill="#281527"></rect><rect width="3.31313" height="2.625" transform="matrix(1 0 0 -1 15.8037 57.125)" fill="#281527"></rect><rect width="3.31313" height="2.625" transform="matrix(1 0 0 -1 10.0059 57.125)" fill="#281527"></rect><rect width="3.31313" height="2.625" transform="matrix(1 0 0 -1 21.6021 57.125)" fill="#281527"></rect><rect width="3.31313" height="2.625" transform="matrix(1 0 0 -1 33.1978 57.125)" fill="#281527"></rect><rect width="3.31313" height="2.625" transform="matrix(1 0 0 -1 27.3999 57.125)" fill="#281527"></rect><rect width="3.31313" height="2.625" transform="matrix(1 0 0 -1 38.9956 57.125)" fill="#281527"></rect><rect width="3.31313" height="2.625" transform="matrix(1 0 0 -1 44.7939 57.125)" fill="#281527"></rect><rect width="3.31313" height="2.625" transform="matrix(1 0 0 -1 56.3896 57.125)" fill="#281527"></rect><rect width="3.31313" height="2.625" transform="matrix(1 0 0 -1 50.5918 57.125)" fill="#281527"></rect><path fill-rule="evenodd" clip-rule="evenodd" d="M-7.67725 51.8955C-7.67725 51.8955 -3.76858 51.8955 -1.6937 51.8955C-0.698019 51.8955 0.14322 50.9743 0.74896 50.0159C1.19174 49.3154 2.44334 49.2857 2.9011 49.9766C3.54539 50.9489 4.40922 51.8955 5.33048 51.8955C7.22436 51.8955 9.56885 51.8955 9.56885 51.8955C9.56885 51.8955 9.56885 51.3238 9.56885 49.9715C9.56885 47.4827 6.5665 47.6863 6.5665 46.4684C6.5665 45.2506 9.56885 46.2031 9.56885 42.147C9.56885 38.0909 9.56885 35.8355 9.56885 35.8355C9.56885 35.8355 8.50565 36.2498 7.39111 37.6723C6.27656 39.0948 6.37705 40.0493 4.09515 41.5021C1.81325 42.9549 -1.19559 43.4997 -1.19559 43.4997C-1.19559 43.4997 -1.97621 46.7287 -3.58579 48.587C-5.19538 50.4453 -7.67725 51.8955 -7.67725 51.8955Z" fill="#EBDFDE"></path><path fill-rule="evenodd" clip-rule="evenodd" d="M-7.67725 13.1045C-7.67725 13.1045 -3.76858 13.1045 -1.6937 13.1045C-0.698019 13.1045 0.14322 14.0257 0.74896 14.9841C1.19174 15.6846 2.44334 15.7143 2.9011 15.0234C3.54539 14.0511 4.40922 13.1045 5.33048 13.1045C7.22436 13.1045 9.56885 13.1045 9.56885 13.1045C9.56885 13.1045 9.56885 13.6292 9.56885 15.0285C9.56885 17.5173 6.5665 17.3137 6.5665 18.5316C6.5665 19.7494 9.56885 18.7969 9.56885 22.853C9.56885 26.9091 9.56885 29.1645 9.56885 29.1645C9.56885 29.1645 8.50565 28.7502 7.39111 27.3277C6.27656 25.9052 5.33048 24.9045 3.3555 23.7754C1.38052 22.6464 -0.89756 22.2848 -0.89756 22.2848C-0.89756 22.2848 -1.97621 18.2713 -3.58579 16.413C-5.19538 14.5547 -7.67725 13.1045 -7.67725 13.1045Z" fill="#EBDFDE"></path><rect x="-14.8428" y="6" width="82" height="6.125" fill="#EBDFDE"></rect><rect x="-14.8428" y="10.375" width="82" height="2.625" fill="#281527"></rect><rect x="4.20801" y="6.875" width="3.31313" height="2.625" fill="#281527"></rect><rect x="15.8037" y="6.875" width="3.31313" height="2.625" fill="#281527"></rect><rect x="10.0059" y="6.875" width="3.31313" height="2.625" fill="#281527"></rect><rect x="21.6021" y="6.875" width="3.31313" height="2.625" fill="#281527"></rect><rect x="33.1978" y="6.875" width="3.31313" height="2.625" fill="#281527"></rect><rect x="27.3999" y="6.875" width="3.31313" height="2.625" fill="#281527"></rect><rect x="38.9956" y="6.875" width="3.31313" height="2.625" fill="#281527"></rect><rect x="44.7939" y="6.875" width="3.31313" height="2.625" fill="#281527"></rect><rect x="56.3896" y="6.875" width="3.31313" height="2.625" fill="#281527"></rect><rect x="50.5918" y="6.875" width="3.31313" height="2.625" fill="#281527"></rect></g></svg>