<svg xmlns="http://www.w3.org/2000/svg" width="65" height="64" viewBox="0 0 65 64" fill="none"><circle cx="32.1572" cy="32" r="32" fill="#BF3F40"></circle><mask id="mask0_81_443" style="mask-type:luminance" maskUnits="userSpaceOnUse" x="0" y="0" width="65" height="64"><circle cx="32.1572" cy="32" r="32" fill="white"></circle></mask><g mask="url(#mask0_81_443)"></g><circle cx="32.1572" cy="31.9999" r="27.7333" fill="#281527"></circle><path fill-rule="evenodd" clip-rule="evenodd" d="M50.7148 27.2046C51.8488 25.0847 50.9839 22.2797 48.9735 21.0591C46.6348 19.6392 43.7711 20.7709 41.5466 24.3292L41.3421 24.6693L41.1701 24.9785C40.56 26.1154 40.1787 27.2866 39.9962 28.5176L39.442 28.4853C38.0375 28.4132 37.1931 28.4554 36.3106 28.6763C34.6066 29.1029 33.5397 30.238 33.4356 32.0566C33.3736 33.1388 33.5575 34.0448 33.9668 34.7733C33.7138 34.6807 33.4449 34.5996 33.1601 34.5299C31.2166 34.0545 29.7526 34.8011 28.9817 36.5018C28.5759 37.3971 28.3644 38.4602 28.2419 39.9946L28.2042 40.5239C28.1985 40.6152 28.1929 40.7081 28.1876 40.8025L28.1582 41.3889L28.1154 42.468C25.9381 42.6256 24.3806 42.9215 23.2832 43.4514C20.5826 44.7556 19.4145 48.3117 22.04 50.657C23.7194 52.1572 25.5071 52.1434 27.1285 51.0257C27.6504 50.6659 28.0418 50.2946 28.5902 49.7021L28.8363 49.4331C29.6403 48.5038 29.9826 47.2265 30.1523 45.0619L30.1898 44.5251L30.405 44.5179L31.2899 44.4965L34.1641 44.4664C33.7569 47.9324 34.7758 49.8245 38.371 50.3502C40.0683 50.5983 41.7688 49.6077 42.6798 48.02C43.4032 46.7591 43.8251 45.4394 43.9869 44.0307C48.0709 43.4627 50.3947 42.1853 50.6004 39.6134C50.7799 37.3673 49.8184 35.9075 47.9373 35.2579C47.33 35.0482 46.706 34.9234 45.9259 34.8601L45.5543 34.8351C45.4263 34.8282 45.2942 34.8226 45.1574 34.8184L44.7323 34.8093L44.2759 34.8073L43.7851 34.8121L43.257 34.8229L42.6884 34.8394L42.5416 34.1879C42.2448 32.8277 42.0848 31.7884 42.0438 30.8175C42.7172 30.8339 43.2081 30.8006 43.6553 30.6985L43.7134 30.6837L43.9341 30.6755C46.9755 30.5263 49.4481 29.5728 50.7148 27.2046ZM42.6712 14.7569C41.4506 12.7465 38.6456 11.8817 36.5256 13.0156L36.3361 13.1212L36.148 13.2349C33.9289 14.6305 33.108 17.1541 33.0399 20.1917L33.0369 20.3998L33.0223 20.4748C32.9598 20.8298 32.9346 21.2149 32.9385 21.6903C32.3775 21.667 31.7924 21.6038 31.134 21.4968L30.6257 21.4083C30.3639 21.3599 30.0901 21.3052 29.8016 21.244L29.2043 21.1128L28.8896 21.0405L28.9176 20.0013L28.9216 19.6985C28.9399 17.713 28.7789 16.3848 28.2741 15.3002C27.5459 13.7356 26.1407 12.9683 24.1169 13.1301C21.5457 13.3357 20.2686 15.6578 19.6998 19.743C18.2891 19.9059 16.9703 20.3278 15.7103 21.0507C14.1226 21.9617 13.132 23.6622 13.3801 25.3594L13.4221 25.6204L13.4604 25.8254C14.0995 29.0571 15.9607 29.958 19.2647 29.5684L19.2504 31.2116L19.2266 32.7325L19.2038 33.5406C19.1115 33.5463 19.0208 33.5523 18.9314 33.5585L18.4126 33.5992C16.321 33.7826 15.0906 34.1506 14.1873 34.9929L13.7592 35.3931L13.5329 35.6163L13.409 35.7446C11.6634 37.5887 11.2168 39.6121 13.0733 41.6904C15.4186 44.316 18.9747 43.1479 20.2788 40.4472C20.8087 39.35 21.1046 37.7928 21.2623 35.615L22.0518 35.5845L22.6145 35.559L23.138 35.5301L23.6253 35.4973L24.0792 35.4597C24.2252 35.4463 24.3662 35.432 24.5025 35.4167L24.898 35.3676L25.2686 35.3117C25.927 35.2024 26.4742 35.0552 26.989 34.8505C28.8491 34.1108 29.7011 32.6174 29.2004 30.5704C29.1307 30.2853 29.053 30.0181 28.9663 29.7691C29.6953 30.1751 30.5992 30.3564 31.6737 30.2949C33.3496 30.199 34.4699 29.2909 34.9641 27.8039C35.2987 26.7971 35.3458 25.679 35.2394 23.954L35.2251 23.7324C36.7022 23.5106 38.0813 23.009 39.401 22.1839C42.9593 19.9593 44.0911 17.0957 42.6712 14.7569ZM18.6778 36.3134L18.6991 36.1043L18.6035 36.1137C18.4374 36.1297 18.2776 36.1464 18.124 36.1639L17.6817 36.2189C16.3388 36.401 15.5395 36.6599 15.1351 37.0382L14.7898 37.3604L14.6525 37.4922L14.5166 37.6276C13.3465 38.8164 13.1144 39.6789 14.1173 40.8076C15.3206 42.1619 17.1037 41.5395 17.8361 40.0762C18.1513 39.4465 18.3951 38.476 18.5764 37.151L18.6456 36.6021L18.6778 36.3134ZM27.4198 45.0523L27.6254 45.0306L27.6167 45.1275L27.5665 45.6068C27.3826 47.2188 27.1104 48.1482 26.6922 48.5952L26.5314 48.7683L26.2443 49.071C25.931 49.3929 25.6841 49.6122 25.4053 49.8078C24.55 50.4076 23.8419 50.4295 22.9229 49.613C21.5686 48.4097 22.1909 46.6266 23.6542 45.8942C24.41 45.516 25.6563 45.2405 27.4198 45.0523ZM34.3562 42.4719L34.4924 41.8297L34.5802 41.381L34.6545 40.9587C35.1042 38.2298 34.6211 37.2065 32.4665 36.7268C31.5423 36.5211 31.1527 36.7263 30.8033 37.4674C30.584 37.9324 30.4224 38.5369 30.2977 39.3526L30.2427 39.7444C30.234 39.8122 30.2254 39.8814 30.2171 39.952L30.1691 40.3917L30.1252 40.8653L30.0849 41.3744L30.066 41.6427L30.0047 42.6223L30.0088 42.6227L30.0082 42.6368L31.1464 42.5827L34.3493 42.4748L34.3562 42.4719ZM22.4095 29.1386C25.4007 28.5874 26.5028 29.0149 27.0035 31.2639L27.03 31.3923C27.1962 32.2671 26.9455 32.6463 26.1171 32.9918C25.8223 33.1148 25.4905 33.2166 25.0963 33.3032L24.7887 33.3653L24.4554 33.4222L24.094 33.4745L23.7022 33.5226C23.6342 33.5303 23.5649 33.5378 23.4942 33.5452L23.0523 33.5881L22.5742 33.6282L22.0575 33.666L21.0995 33.7259L21.1008 33.707L21.0922 33.7075L21.1351 32.8498L21.1851 31.5659L21.2557 29.3746L21.9692 29.2239L22.4095 29.1386ZM41.6874 44.5271L41.7288 44.3121L41.1857 44.3627L40.5339 44.4154L39.8511 44.4632C39.7345 44.4708 39.6165 44.4782 39.4969 44.4854L38.7605 44.5267C38.6345 44.5333 38.5067 44.5397 38.3772 44.5459L37.1618 44.5986L36.147 44.6345C35.7458 47.1063 36.1897 48.0419 38.2204 48.3753L38.3933 48.4018L38.5598 48.4238C39.3084 48.5162 40.1666 48.0032 40.6711 47.147C41.1091 46.4035 41.4201 45.6394 41.6183 44.832L41.6874 44.5271ZM19.1984 22.0434L19.4176 22.0008L19.3973 22.2143L19.3423 22.8443L19.2925 23.5025L19.2473 24.1929L19.2062 24.9199L19.1687 25.6876L19.1343 26.5004L19.0951 27.5826L18.8721 27.6181C16.5137 27.965 15.655 27.4542 15.3368 25.3895L15.3044 25.155L15.2949 25.0318C15.2722 24.3278 15.7747 23.5358 16.5833 23.0594C17.4197 22.5666 18.2822 22.2346 19.1984 22.0434ZM26.769 22.6582L25.9366 22.4745L25.6031 22.4032L24.97 22.2738L24.3783 22.1619C23.3282 21.9724 22.4619 21.8695 21.646 21.8462L21.5921 22.4079L21.5429 22.9938L21.498 23.6073L21.457 24.2519C21.4505 24.3621 21.4441 24.4738 21.4378 24.5869L21.4019 25.2846L21.3531 26.4065L21.3268 27.1301L21.4724 27.0996C23.9527 26.5783 25.7799 26.53 27.0632 27.2338C26.7587 26.1904 26.6842 24.9196 26.7477 23.1578L26.769 22.6582ZM36.3987 36.6376C37.5637 36.9982 38.8896 37.0623 41.0716 36.9612L41.1114 37.1366L41.3029 38.0162L41.4143 38.5536L41.5132 39.0561L41.5999 39.5274L41.6746 39.9712L41.7376 40.3911C41.7472 40.4593 41.7563 40.5267 41.7649 40.5933L41.8111 40.9844C41.8247 41.1122 41.8364 41.2374 41.8465 41.3609L41.8713 41.7265C41.8778 41.8469 41.8827 41.9662 41.8859 42.0848C41.7864 42.0949 41.6858 42.1048 41.5841 42.1145L40.959 42.1698L40.3021 42.2199L39.6095 42.2654L38.4956 42.326L37.6974 42.362L36.6001 42.4034L36.6763 42.0383C37.0673 40.1236 37.1572 38.9392 36.8664 37.7816C36.7616 37.3641 36.6059 36.9824 36.3987 36.6376ZM40.092 30.6404L40.0918 30.4617L39.5823 30.4432L39.1488 30.4327L38.7565 30.4299L38.4011 30.4352L38.0777 30.449C38.0262 30.452 37.9758 30.4554 37.9265 30.4592L37.6426 30.4866C37.3698 30.5188 37.1278 30.5654 36.8959 30.6285C36.0805 30.8503 35.753 31.1977 35.689 31.9936C35.5308 33.9621 36.4236 34.6888 39.2299 34.7679L39.6439 34.7748C39.7151 34.7753 39.7874 34.7754 39.8608 34.7751L40.315 34.7696L40.5814 34.7621L40.5751 34.7332L40.5917 34.7319L40.5449 34.4943C40.2729 33.0915 40.1261 31.977 40.0968 30.9071L40.092 30.6404ZM33.0849 23.6388L33.2784 23.6385L33.2799 23.6811L33.2833 23.6805L33.2949 23.9691L33.3085 24.4074L33.3143 24.8161C33.3149 24.9475 33.3141 25.0741 33.3119 25.196L33.3008 25.548C33.2205 27.2958 32.7792 27.9577 31.7367 28.0415L31.5952 28.051L31.4551 28.0567C29.5702 28.106 28.9397 26.9751 28.9496 23.9161L28.9556 23.4546L28.9647 23.1312L29.2345 23.1852L29.5792 23.2506C30.9354 23.502 32.0234 23.6287 33.0849 23.6388ZM26.895 20.3669L26.9257 19.6546L26.9376 19.195C26.939 19.1207 26.94 19.0476 26.9406 18.9755L26.9401 18.5569C26.9393 18.4893 26.9381 18.4229 26.9365 18.3576L26.9227 17.9786C26.8053 15.6608 26.1208 14.8956 24.4115 15.0717C23.3426 15.1818 22.526 16.5375 22.0055 19.2793L21.943 19.6272L22.0816 19.6316C23.206 19.6758 24.3848 19.8465 25.8817 20.1517L26.5962 20.3021L26.895 20.3669ZM47.3898 37.0689C48.4034 37.398 48.7943 38.0037 48.6588 39.3187L48.6467 39.4074L48.6269 39.5029C48.3784 40.5132 46.9457 41.2827 44.202 41.7706L44.1046 41.7865L44.101 41.669L44.0912 41.4407C44.0602 40.8305 43.9918 40.2056 43.8817 39.5039L43.7912 38.9622L43.6846 38.3859L43.5617 37.7692C43.5179 37.5562 43.4713 37.3355 43.4218 37.1061L43.3628 36.8358L43.7346 36.8192L44.2356 36.8013L44.6953 36.7911L45.1168 36.7891L45.5035 36.7957C46.3058 36.8192 46.8853 36.9051 47.3898 37.0689ZM49.3578 25.7066C49.9634 24.6079 49.497 22.9836 48.3878 22.3266C47.1928 21.6189 45.6182 22.241 43.9469 24.7628L43.8148 24.9658L43.6199 25.2822C43.1103 26.1435 42.7617 27.0273 42.5545 27.9533L42.4906 28.2635L42.4808 28.3213L42.5791 28.3217C42.9774 28.3202 43.271 28.3002 43.4882 28.2608L43.5766 28.2426L43.6478 28.2245L43.8452 28.1631L44.0878 28.1516C46.4848 28.0132 48.3698 27.3129 49.2684 25.8596L49.3578 25.7066ZM38.0237 14.3727C39.1224 13.767 40.7467 14.2334 41.4037 15.3427C42.13 16.5691 41.4556 18.1954 38.7463 19.9271L38.4836 20.0895L38.193 20.2565C37.3184 20.7394 36.4182 21.06 35.4678 21.239L35.4342 21.2441L35.4427 20.9794C35.456 20.7081 35.4825 20.4947 35.5239 20.3215L35.5567 20.1874L35.5724 19.7567C35.6937 17.2451 36.4237 15.2548 38.0237 14.3727Z" fill="#EBDFDE"></path><ellipse cx="37.8195" cy="17.4052" rx="0.829017" ry="1.16093" transform="rotate(45 37.8195 17.4052)" fill="#EBDFDE"></ellipse><ellipse cx="45.9482" cy="25.5336" rx="0.811435" ry="1.16093" transform="rotate(45 45.9482 25.5336)" fill="#EBDFDE"></ellipse><ellipse cx="45.9627" cy="39.5623" rx="0.802102" ry="1.00882" transform="rotate(45 45.9627 39.5623)" fill="#EBDFDE"></ellipse><ellipse cx="37.7785" cy="32.5556" rx="0.719572" ry="1.06739" transform="rotate(45 37.7785 32.5556)" fill="#EBDFDE"></ellipse><ellipse cx="38.2286" cy="46.3525" rx="0.719572" ry="1.01779" transform="rotate(45 38.2286 46.3525)" fill="#EBDFDE"></ellipse><ellipse cx="32.163" cy="40.2064" rx="0.719572" ry="1.16093" transform="rotate(45 32.163 40.2064)" fill="#EBDFDE"></ellipse><ellipse cx="24.4339" cy="47.9356" rx="0.719572" ry="1.06581" transform="rotate(45 24.4339 47.9356)" fill="#EBDFDE"></ellipse><ellipse cx="15.7413" cy="39.3068" rx="0.719572" ry="1.02049" transform="rotate(45 15.7413 39.3068)" fill="#EBDFDE"></ellipse><ellipse cx="23.4979" cy="31.5503" rx="0.719572" ry="0.992604" transform="rotate(45 23.4979 31.5503)" fill="#EBDFDE"></ellipse><ellipse cx="30.6708" cy="25.4166" rx="0.719572" ry="1.04561" transform="rotate(45 30.6708 25.4166)" fill="#EBDFDE"></ellipse><ellipse cx="16.9341" cy="24.9063" rx="0.719572" ry="0.935644" transform="rotate(45 16.9341 24.9063)" fill="#EBDFDE"></ellipse><ellipse cx="24.1663" cy="17.7209" rx="0.767711" ry="0.97724" transform="rotate(45 24.1663 17.7209)" fill="#EBDFDE"></ellipse></svg>