<svg xmlns="http://www.w3.org/2000/svg" width="65" height="64" viewBox="0 0 65 64" fill="none"><circle cx="32.1572" cy="32" r="32" fill="#BF3F40"></circle><mask id="mask0_81_535" style="mask-type:luminance" maskUnits="userSpaceOnUse" x="0" y="0" width="65" height="64"><circle cx="32.1572" cy="32" r="32" fill="white"></circle></mask><g mask="url(#mask0_81_535)"><path fill-rule="evenodd" clip-rule="evenodd" d="M0.149414 35.7839C0.443399 35.8707 1.27726 35.824 3.60386 35.0622C7.50879 33.7836 8.97272 32 8.97272 32C8.97272 32 10.0999 34.9354 16.7379 35.6048C23.3759 36.2743 28.9477 32 28.9477 32C28.9477 32 30.2836 34.5274 33.9023 35.9985C37.521 37.4696 42.4543 36.5317 44.6276 35.9985C46.8009 35.4652 49.5525 32.844 49.5525 32.844C49.5525 32.844 52.0327 37.0927 57.5219 37.0927C60.4635 37.0927 62.7118 36.5096 64.1651 35.9684C62.3795 51.9617 48.7348 64.3994 32.1673 64.3994C15.5362 64.3994 1.85033 51.866 0.149414 35.7839Z" fill="#9BE9F2"></path><path fill-rule="evenodd" clip-rule="evenodd" d="M25.6687 0.658203C25.0725 0.780994 24.4823 0.92037 23.8987 1.07583C25.4936 3.20023 27.3518 5.77832 29.1131 8.46786C33.5105 15.1825 32.6191 32.5412 32.6191 32.5412C32.6191 32.5412 35.6783 31.164 38.2248 30.4392C37.6116 32.6164 36.2854 37.1265 35.4918 38.357C33.8361 38.4251 31.9485 38.3965 29.8315 38.3643H29.8314H29.8313H29.8312H29.8311H29.831H29.8308C28.6056 38.3457 27.3036 38.326 25.9252 38.3231C25.4656 38.3222 24.9231 38.3055 24.3255 38.2771L24.4436 32.7793H24.448C24.448 32.7793 24.5376 30.8368 24.448 30.8424C22.6652 30.9528 11.4638 30.8424 11.4638 30.8424C11.4638 30.8424 11.613 31.7814 11.7153 32.2674C11.8015 32.6768 11.8533 32.7597 11.8675 32.7757L11.9706 33.1962L13.4005 37.3183C13.264 37.3032 13.1905 37.2949 13.1905 37.2949L9.54395 40.4155V41.1987L12.5613 40.0004L13.1905 42.6551H47.4147L54.5724 35.5295L59.0373 34.8329H53.7864C53.7864 34.8329 44.4396 37.7035 36.7417 38.2837C37.3003 36.4598 38.582 32.203 38.9894 30.2387C39.2922 30.167 39.5812 30.1089 39.8489 30.0685C43.3225 29.5451 47.1858 29.8009 49.7075 29.9679H49.7076L49.7077 29.9679C50.4188 30.015 51.0232 30.055 51.4821 30.0685C56.4464 30.2145 59.0373 33.3179 59.0373 33.3179C59.0373 33.3179 51.3268 23.6972 43.5871 16.2996C38.8797 11.8002 31.0675 5.16593 25.6687 0.658203ZM12.6557 32.7793H23.6989V38.2442C20.4102 38.0571 15.8831 37.587 14.0313 37.3871L12.6557 32.7793Z" fill="#281527"></path><mask id="mask1_81_535" style="mask-type:luminance" maskUnits="userSpaceOnUse" x="9" y="0" width="51" height="43"><path fill-rule="evenodd" clip-rule="evenodd" d="M25.6687 0.658203C25.0725 0.780994 24.4823 0.92037 23.8987 1.07583C25.4936 3.20023 27.3518 5.77832 29.1131 8.46786C33.5105 15.1825 32.6191 32.5412 32.6191 32.5412C32.6191 32.5412 35.6783 31.164 38.2248 30.4392C37.6116 32.6164 36.2854 37.1265 35.4918 38.357C33.8361 38.4251 31.9485 38.3965 29.8315 38.3643H29.8314H29.8313H29.8312H29.8311H29.831H29.8308C28.6056 38.3457 27.3036 38.326 25.9252 38.3231C25.4656 38.3222 24.9231 38.3055 24.3255 38.2771L24.4436 32.7793H24.448C24.448 32.7793 24.5376 30.8368 24.448 30.8424C22.6652 30.9528 11.4638 30.8424 11.4638 30.8424C11.4638 30.8424 11.613 31.7814 11.7153 32.2674C11.8015 32.6768 11.8533 32.7597 11.8675 32.7757L11.9706 33.1962L13.4005 37.3183C13.264 37.3032 13.1905 37.2949 13.1905 37.2949L9.54395 40.4155V41.1987L12.5613 40.0004L13.1905 42.6551H47.4147L54.5724 35.5295L59.0373 34.8329H53.7864C53.7864 34.8329 44.4396 37.7035 36.7417 38.2837C37.3003 36.4598 38.582 32.203 38.9894 30.2387C39.2922 30.167 39.5812 30.1089 39.8489 30.0685C43.3225 29.5451 47.1858 29.8009 49.7075 29.9679H49.7076L49.7077 29.9679C50.4188 30.015 51.0232 30.055 51.4821 30.0685C56.4464 30.2145 59.0373 33.3179 59.0373 33.3179C59.0373 33.3179 51.3268 23.6972 43.5871 16.2996C38.8797 11.8002 31.0675 5.16593 25.6687 0.658203ZM12.6557 32.7793H23.6989V38.2442C20.4102 38.0571 15.8831 37.587 14.0313 37.3871L12.6557 32.7793Z" fill="white"></path></mask><g mask="url(#mask1_81_535)"></g></g></svg>