<svg xmlns="http://www.w3.org/2000/svg" width="20" height="20" viewBox="0 0 20 20" fill="none"><path d="M12.0382 7.9619C11.5927 7.51644 11.0818 7.16372 10.53 6.89917C10.1891 7.2419 10 7.69826 10 8.1819C10 8.37553 10.0364 8.55917 10.0927 8.73462C10.3282 8.88099 10.5518 9.04644 10.7527 9.24735C11.4391 9.93462 11.8182 10.8474 11.8182 11.8183C11.8182 12.7892 11.44 13.7028 10.7536 14.3901L8.02636 17.1164C6.65182 18.491 4.25727 18.491 2.88364 17.1164C2.19636 16.4292 1.81818 15.5164 1.81818 14.5455C1.81818 13.5746 2.19636 12.6619 2.88273 11.9746L4.79545 10.0619C4.63455 9.45553 4.54545 8.82644 4.54545 8.1819C4.54545 8.03462 4.55727 7.88826 4.56636 7.74281C4.48545 7.81462 4.40273 7.88462 4.32455 7.9619L1.59727 10.6892C0.567273 11.7192 0 13.0883 0 14.5455C0 16.0028 0.567273 17.3719 1.59727 18.4019C2.62818 19.4328 3.99727 20.0001 5.45455 20.0001C6.91182 20.0001 8.28091 19.4328 9.31182 18.4019L12.0391 15.6755C13.0682 14.6446 13.6364 13.2755 13.6364 11.8183C13.6364 10.361 13.0682 8.9919 12.0382 7.9619Z" fill="#212121"></path><path d="M18.4026 1.59818C17.3717 0.567273 16.0026 0 14.5453 0C13.0881 0 11.719 0.567273 10.6881 1.59818L7.9608 4.32455C6.93171 5.35545 6.36353 6.72455 6.36353 8.18182C6.36353 9.63909 6.9308 11.0082 7.9608 12.0382C8.40625 12.4836 8.91716 12.8364 9.46898 13.1009C9.8108 12.7582 9.99989 12.3018 9.99989 11.8182C9.99989 11.62 9.96262 11.4318 9.90353 11.2527C9.66898 11.1118 9.44625 10.9509 9.24807 10.7527C8.5608 10.0655 8.18171 9.15273 8.18171 8.18182C8.18171 7.21091 8.55989 6.29727 9.24625 5.61L11.9735 2.88364C12.6608 2.19636 13.5744 1.81818 14.5453 1.81818C15.5163 1.81818 16.4299 2.19636 17.1172 2.88364C17.8035 3.57091 18.1817 4.48364 18.1817 5.45455C18.1817 6.42545 17.8035 7.33818 17.1172 8.02545L15.2017 9.94091C15.3635 10.5464 15.4544 11.1745 15.4544 11.8182C15.4544 11.9655 15.4435 12.1109 15.4353 12.2564C15.5163 12.1845 15.599 12.1155 15.6763 12.0382L18.4035 9.31091C19.4326 8.28091 19.9999 6.91182 19.9999 5.45455C19.9999 3.99727 19.4326 2.62818 18.4026 1.59818Z" fill="#212121"></path></svg>