<svg xmlns="http://www.w3.org/2000/svg" width="65" height="64" viewBox="0 0 65 64" fill="none"><circle cx="32.1572" cy="32" r="32" fill="#BF3F40"></circle><path fill-rule="evenodd" clip-rule="evenodd" d="M26.3317 16.1894L24.8674 24.4937L9.76768 25.8017L14.7662 30.3712L29.3211 28.9478L30.1904 16.8697L27.0477 12.1287L26.3317 16.1894Z" fill="#E5B94E"></path><path fill-rule="evenodd" clip-rule="evenodd" d="M37.8021 47.389L39.2663 39.0847L54.3661 37.7767L49.3676 33.2071L33.8971 33.3169L33.9434 46.7086L37.0861 51.4497L37.8021 47.389Z" fill="#E5B94E"></path><path fill-rule="evenodd" clip-rule="evenodd" d="M31.9966 17.0787L32.0055 30.6807L46.0854 30.6899L49.9642 26.6931L35.799 25.7744L35.433 13.8203L31.9966 17.0787Z" fill="#9BE9F2"></path><path fill-rule="evenodd" clip-rule="evenodd" d="M32.0406 44.9597L31.2416 31.686L16.8164 32.6221L13.3024 36.9411L27.0967 36.6348L28.9026 48.5044L32.0406 44.9597Z" fill="#9BE9F2"></path><path fill-rule="evenodd" clip-rule="evenodd" d="M41.5415 13.7798L42.1476 18.4632L48.0637 19.4626L45.0841 24.44L37.4995 23.784L37.2705 16.8446L41.5415 13.7798Z" fill="#86D0E6"></path><path fill-rule="evenodd" clip-rule="evenodd" d="M19.5481 12.4624L18.6958 16.5621L12.1563 16.9644L16.9614 22.1705L23.1382 22.497L23.4777 15.9603L19.5481 12.4624Z" fill="#FDE883"></path><path fill-rule="evenodd" clip-rule="evenodd" d="M21.9774 49.305L20.7351 43.7844L15.3082 41.8763L19.9926 38.8364L25.389 38.633L25.9482 45.5958L21.9774 49.305Z" fill="#86D0E6"></path><path fill-rule="evenodd" clip-rule="evenodd" d="M43.6339 51.1795L44.7004 47.1301L51.2526 47.0693L46.7272 41.6202L40.5756 40.972L39.8931 47.4816L43.6339 51.1795Z" fill="#FDE883"></path><ellipse cx="47.322" cy="13.7936" rx="1.61404" ry="1.60784" transform="rotate(10 47.322 13.7936)" fill="#E5B94E"></ellipse><ellipse cx="15.5066" cy="48.7485" rx="1.61404" ry="1.60784" transform="rotate(10 15.5066 48.7485)" fill="#E5B94E"></ellipse><ellipse cx="14.3113" cy="11.4494" rx="1.61404" ry="1.60784" transform="rotate(10 14.3113 11.4494)" fill="#86D0E6"></ellipse><ellipse cx="49.5403" cy="52.1237" rx="1.61404" ry="1.60784" transform="rotate(10 49.5403 52.1237)" fill="#86D0E6"></ellipse></svg>