<svg xmlns="http://www.w3.org/2000/svg" width="32" height="32" viewBox="0 0 32 32" fill="none"><path d="M30.6667 4H14.6667V6.66667H30.6667C31.4027 6.66667 32 6.06933 32 5.33333C32 4.59733 31.4027 4 30.6667 4Z" fill="#212121"></path><path d="M1.33333 6.66667H4V9.33333C4 10.0693 4.59733 10.6667 5.33333 10.6667H10.6667C11.4027 10.6667 12 10.0693 12 9.33333V1.33333C12 0.597333 11.4027 0 10.6667 0H5.33333C4.59733 0 4 0.597333 4 1.33333V4H1.33333C0.597333 4 0 4.59733 0 5.33333C0 6.06933 0.597333 6.66667 1.33333 6.66667Z" fill="#212121"></path><path d="M30.6667 14.6667H28V17.3334H30.6667C31.4027 17.3334 32 16.7361 32 16.0001C32 15.2641 31.4027 14.6667 30.6667 14.6667Z" fill="#212121"></path><path d="M1.33333 17.3334H17.3333V20.0001C17.3333 20.7361 17.9307 21.3334 18.6667 21.3334H24C24.736 21.3334 25.3333 20.7361 25.3333 20.0001V12.0001C25.3333 11.2641 24.736 10.6667 24 10.6667H18.6667C17.9307 10.6667 17.3333 11.2641 17.3333 12.0001V14.6667H1.33333C0.597333 14.6667 0 15.2641 0 16.0001C0 16.7361 0.597333 17.3334 1.33333 17.3334Z" fill="#212121"></path><path d="M30.6667 25.3333H14.6667V27.9999H30.6667C31.4027 27.9999 32 27.4026 32 26.6666C32 25.9306 31.4027 25.3333 30.6667 25.3333Z" fill="#212121"></path><path d="M10.6667 21.3333H5.33333C4.59733 21.3333 4 21.9306 4 22.6666V25.3333H1.33333C0.597333 25.3333 0 25.9306 0 26.6666C0 27.4026 0.597333 27.9999 1.33333 27.9999H4V30.6666C4 31.4026 4.59733 31.9999 5.33333 31.9999H10.6667C11.4027 31.9999 12 31.4026 12 30.6666V22.6666C12 21.9306 11.4027 21.3333 10.6667 21.3333Z" fill="#212121"></path></svg>