<svg xmlns="http://www.w3.org/2000/svg" xmlns:xlink="http://www.w3.org/1999/xlink" width="32px" height="32px" viewBox="0 0 32 32"><g id="surface1"><path style=" stroke:none;fill-rule:nonzero;fill:rgb(0%,0%,0%);fill-opacity:1;" d="M 2.269531 0.09375 C 1.574219 0.28125 1.085938 0.644531 0.679688 1.269531 C 0.230469 1.96875 0.25 1.476562 0.25 11.175781 C 0.25 16.730469 0.273438 19.980469 0.3125 20.195312 C 0.457031 20.976562 1.039062 21.769531 1.699219 22.082031 C 2.238281 22.34375 2.25 22.335938 2.382812 21.875 C 2.539062 21.324219 2.53125 21.289062 2.289062 21.199219 C 2.175781 21.15625 1.949219 20.988281 1.792969 20.820312 C 1.273438 20.261719 1.304688 20.976562 1.324219 11.054688 L 1.34375 2.28125 L 1.488281 1.988281 C 1.570312 1.820312 1.75 1.585938 1.886719 1.46875 C 2.40625 1.03125 1.523438 1.054688 13.71875 1.074219 L 24.71875 1.09375 L 24.96875 1.230469 C 25.539062 1.539062 25.8125 1.988281 25.855469 2.699219 L 25.894531 3.1875 L 26.9375 3.1875 L 26.9375 2.792969 C 26.9375 1.992188 26.636719 1.273438 26.09375 0.757812 C 25.71875 0.398438 25.289062 0.167969 24.824219 0.0703125 C 24.585938 0.0195312 21.425781 0 13.542969 0.0078125 C 4.3125 0.0078125 2.542969 0.0234375 2.269531 0.09375 Z M 2.269531 0.09375 "></path><path style=" stroke:none;fill-rule:nonzero;fill:rgb(0%,0%,0%);fill-opacity:1;" d="M 2.375 2.65625 L 2.375 3.1875 L 3.4375 3.1875 L 3.4375 2.125 L 2.375 2.125 Z M 2.375 2.65625 "></path><path style=" stroke:none;fill-rule:nonzero;fill:rgb(0%,0%,0%);fill-opacity:1;" d="M 4.5625 2.65625 L 4.5625 3.1875 L 5.625 3.1875 L 5.625 2.125 L 4.5625 2.125 Z M 4.5625 2.65625 "></path><path style=" stroke:none;fill-rule:nonzero;fill:rgb(0%,0%,0%);fill-opacity:1;" d="M 6.6875 2.65625 L 6.6875 3.1875 L 7.75 3.1875 L 7.75 2.125 L 6.6875 2.125 Z M 6.6875 2.65625 "></path><path style=" stroke:none;fill-rule:nonzero;fill:rgb(0%,0%,0%);fill-opacity:1;" d="M 5.632812 4.320312 C 4.5 4.539062 3.648438 5.46875 3.5 6.65625 C 3.457031 6.988281 3.4375 10.039062 3.449219 15.8125 C 3.476562 25.53125 3.429688 24.726562 3.945312 25.492188 C 4.230469 25.925781 4.707031 26.300781 5.242188 26.511719 C 5.59375 26.65625 5.613281 26.65625 9.332031 26.675781 L 13.0625 26.695312 L 13.0625 25.632812 L 9.425781 25.613281 C 5.882812 25.59375 5.773438 25.585938 5.5 25.460938 C 5.148438 25.300781 4.832031 24.988281 4.679688 24.65625 C 4.570312 24.417969 4.5625 23.988281 4.5625 15.480469 C 4.5625 5.789062 4.542969 6.386719 4.898438 5.917969 C 4.988281 5.800781 5.210938 5.625 5.386719 5.523438 L 5.71875 5.34375 L 16.78125 5.34375 C 26.855469 5.34375 27.863281 5.351562 28.070312 5.445312 C 28.386719 5.585938 28.738281 5.914062 28.894531 6.210938 L 29.03125 6.46875 L 29.03125 24.46875 L 28.863281 24.773438 L 28.6875 25.074219 L 28.980469 25.335938 C 29.480469 25.773438 29.476562 25.773438 29.625 25.570312 C 29.695312 25.460938 29.832031 25.21875 29.925781 25.019531 L 30.09375 24.65625 L 30.09375 6.28125 L 29.894531 5.855469 C 29.65625 5.363281 29.179688 4.835938 28.761719 4.605469 C 28.082031 4.238281 28.65625 4.25 16.78125 4.257812 C 10.800781 4.261719 5.78125 4.289062 5.632812 4.320312 Z M 5.632812 4.320312 "></path><path style=" stroke:none;fill-rule:nonzero;fill:rgb(0%,0%,0%);fill-opacity:1;" d="M 5.625 6.90625 L 5.625 7.4375 L 6.695312 7.4375 L 6.675781 6.917969 L 6.65625 6.40625 L 6.144531 6.386719 L 5.625 6.367188 Z M 5.625 6.90625 "></path><path style=" stroke:none;fill-rule:nonzero;fill:rgb(0%,0%,0%);fill-opacity:1;" d="M 7.75 6.90625 L 7.75 7.4375 L 8.820312 7.4375 L 8.800781 6.917969 L 8.78125 6.40625 L 8.269531 6.386719 L 7.75 6.367188 Z M 7.75 6.90625 "></path><path style=" stroke:none;fill-rule:nonzero;fill:rgb(0%,0%,0%);fill-opacity:1;" d="M 9.875 6.90625 L 9.875 7.4375 L 10.9375 7.4375 L 10.9375 6.375 L 9.875 6.375 Z M 9.875 6.90625 "></path><path style=" stroke:none;fill-rule:nonzero;fill:rgb(0%,0%,0%);fill-opacity:1;" d="M 21.625 11.039062 L 21.625 13.511719 L 21.425781 13.476562 C 21.3125 13.457031 21.074219 13.417969 20.894531 13.394531 L 20.5625 13.355469 L 20.5625 9.625 L 19.4375 9.625 L 19.4375 13.355469 L 19.105469 13.394531 C 18.925781 13.417969 18.6875 13.457031 18.574219 13.476562 L 18.375 13.511719 L 18.375 11.75 L 17.3125 11.75 L 17.3125 13.84375 L 16.832031 14.0625 C 16.570312 14.179688 16.332031 14.289062 16.300781 14.300781 C 16.273438 14.3125 16.25 13.617188 16.25 12.757812 L 16.25 11.1875 L 15.1875 11.1875 L 15.1875 15.085938 L 14.65625 15.632812 L 14.125 16.167969 L 14.125 12.25 L 13.0625 12.25 L 13.0625 18.019531 L 12.882812 18.585938 C 12.632812 19.375 12.542969 20.03125 12.570312 21.023438 L 12.59375 21.875 L 5.625 21.875 L 5.625 22.9375 L 12.855469 22.9375 L 12.929688 23.195312 C 13.210938 24.125 13.914062 25.242188 14.742188 26.070312 C 16.101562 27.425781 17.75 28.15625 19.632812 28.230469 C 21.199219 28.292969 22.476562 27.980469 23.800781 27.207031 C 24.054688 27.054688 24.28125 26.9375 24.300781 26.9375 C 24.324219 26.9375 25.480469 28.074219 26.875 29.46875 C 28.726562 31.3125 29.449219 32 29.550781 32 C 29.632812 32 29.769531 31.960938 29.863281 31.914062 C 30.070312 31.800781 31.582031 30.273438 31.6875 30.074219 C 31.726562 29.992188 31.742188 29.851562 31.71875 29.761719 C 31.695312 29.65625 30.761719 28.675781 29.113281 27.023438 L 26.542969 24.449219 L 26.800781 23.851562 C 26.945312 23.523438 27.074219 23.179688 27.101562 23.09375 C 27.136719 22.945312 27.164062 22.9375 27.570312 22.9375 L 28 22.9375 L 28 21.875 L 27.40625 21.875 L 27.40625 20.761719 C 27.40625 19.613281 27.355469 19.25 27.0625 18.414062 C 26.945312 18.0625 26.9375 17.898438 26.9375 15.425781 L 26.9375 12.8125 L 25.875 12.8125 L 25.875 16.167969 L 25.34375 15.632812 L 24.8125 15.085938 L 24.8125 10.6875 L 23.75 10.6875 L 23.75 12.507812 C 23.75 13.511719 23.726562 14.3125 23.695312 14.300781 C 23.667969 14.289062 23.425781 14.179688 23.167969 14.0625 L 22.695312 13.84375 L 22.6875 11.199219 L 22.6875 8.5625 L 21.625 8.5625 Z M 20.617188 14.4375 C 21.425781 14.523438 22.167969 14.738281 22.863281 15.085938 C 23.539062 15.429688 23.90625 15.695312 24.425781 16.199219 C 25.425781 17.175781 26.007812 18.25 26.28125 19.617188 C 26.425781 20.320312 26.382812 21.695312 26.199219 22.386719 C 25.664062 24.382812 24.304688 25.929688 22.414062 26.71875 C 19.386719 27.96875 15.8125 26.644531 14.3125 23.71875 C 13.78125 22.675781 13.585938 21.757812 13.644531 20.488281 C 13.6875 19.476562 13.832031 18.894531 14.25 18.03125 C 14.894531 16.699219 15.90625 15.6875 17.21875 15.054688 C 18.085938 14.636719 18.730469 14.476562 19.882812 14.382812 C 19.9375 14.382812 20.269531 14.40625 20.617188 14.4375 Z M 28.21875 27.625 L 30.46875 29.875 L 30.042969 30.292969 L 29.625 30.71875 L 25.136719 26.230469 L 25.519531 25.800781 C 25.730469 25.570312 25.917969 25.375 25.9375 25.375 C 25.957031 25.375 26.980469 26.386719 28.21875 27.625 Z M 28.21875 27.625 "></path><path style=" stroke:none;fill-rule:nonzero;fill:rgb(0%,0%,0%);fill-opacity:1;" d="M 19.449219 15.511719 C 17.210938 15.699219 15.242188 17.46875 14.789062 19.699219 C 14.664062 20.300781 14.65625 21.292969 14.78125 21.863281 C 15.132812 23.53125 16.179688 24.867188 17.71875 25.601562 C 18.585938 26.011719 18.949219 26.085938 20 26.085938 C 21.050781 26.085938 21.414062 26.011719 22.28125 25.601562 C 23.824219 24.867188 24.882812 23.519531 25.226562 21.832031 C 25.386719 21.0625 25.320312 19.949219 25.074219 19.1875 C 24.488281 17.394531 23 16.019531 21.226562 15.632812 C 20.539062 15.480469 20.136719 15.449219 19.449219 15.511719 Z M 19.449219 18.667969 L 19.46875 20.78125 L 20.53125 20.78125 L 20.550781 18.675781 L 20.5625 16.570312 L 20.769531 16.605469 C 20.875 16.625 21.113281 16.6875 21.28125 16.742188 L 21.59375 16.84375 L 21.613281 18.824219 L 21.625 20.8125 L 22.6875 20.8125 L 22.6875 19.136719 L 22.695312 17.46875 L 23.082031 17.882812 C 23.542969 18.367188 23.824219 18.824219 24.042969 19.449219 C 24.1875 19.851562 24.207031 20.011719 24.210938 20.71875 C 24.21875 21.164062 24.199219 21.605469 24.167969 21.699219 L 24.125 21.875 L 15.875 21.875 L 15.832031 21.699219 C 15.800781 21.605469 15.78125 21.179688 15.78125 20.75 C 15.78125 20.101562 15.804688 19.894531 15.925781 19.53125 C 16.136719 18.894531 16.460938 18.355469 16.914062 17.882812 L 17.304688 17.46875 L 17.3125 19.136719 L 17.3125 20.8125 L 18.375 20.8125 L 18.375 18.851562 C 18.375 17.414062 18.394531 16.867188 18.449219 16.835938 C 18.511719 16.792969 19.28125 16.574219 19.386719 16.570312 C 19.414062 16.5625 19.445312 17.511719 19.449219 18.667969 Z M 23.554688 23.136719 C 22.707031 24.363281 21.40625 25.0625 20 25.0625 C 18.59375 25.0625 17.292969 24.363281 16.445312 23.136719 L 16.304688 22.9375 L 23.695312 22.9375 Z M 23.554688 23.136719 "></path><path style=" stroke:none;fill-rule:nonzero;fill:rgb(0%,0%,0%);fill-opacity:1;" d="M 8.8125 17.59375 L 8.8125 20.8125 L 9.875 20.8125 L 9.875 14.375 L 8.8125 14.375 Z M 8.8125 17.59375 "></path><path style=" stroke:none;fill-rule:nonzero;fill:rgb(0%,0%,0%);fill-opacity:1;" d="M 10.9375 18.40625 L 10.9375 20.8125 L 12 20.8125 L 12 16 L 10.9375 16 Z M 10.9375 18.40625 "></path><path style=" stroke:none;fill-rule:nonzero;fill:rgb(0%,0%,0%);fill-opacity:1;" d="M 6.6875 19.21875 L 6.6875 20.8125 L 7.75 20.8125 L 7.75 17.625 L 6.6875 17.625 Z M 6.6875 19.21875 "></path></g></svg>