<?xml version="1.0" encoding="UTF-8"?>
<svg xmlns="http://www.w3.org/2000/svg" xmlns:xlink="http://www.w3.org/1999/xlink" width="32px" height="32px" viewBox="0 0 32 32" version="1.1">
<g id="surface1">
<path style=" stroke:none;fill-rule:nonzero;fill:rgb(0%,0%,0%);fill-opacity:1;" d="M 0.332031 4.53125 C 0.226562 4.574219 0.105469 4.667969 0.0703125 4.742188 C 0.0195312 4.832031 0 6.539062 0 10.304688 L 0 15.742188 L 0.136719 15.898438 C 0.34375 16.125 2.867188 17.5625 3.0625 17.5625 C 3.148438 17.554688 3.289062 17.519531 3.367188 17.476562 C 3.507812 17.398438 3.582031 17.429688 4.398438 17.90625 L 5.28125 18.417969 L 5.28125 18.976562 C 5.28125 19.449219 5.304688 19.582031 5.449219 19.875 C 5.726562 20.429688 6.292969 20.894531 6.8125 20.976562 L 7.03125 21.011719 L 7.03125 21.519531 C 7.03125 21.949219 7.054688 22.085938 7.207031 22.386719 C 7.523438 23.039062 8.125 23.429688 8.886719 23.488281 L 9.300781 23.519531 L 9.34375 23.835938 C 9.511719 25.125 10.75 25.925781 11.949219 25.519531 C 12.292969 25.398438 12.3125 25.398438 12.3125 25.507812 C 12.3125 25.742188 12.574219 26.3125 12.804688 26.574219 C 12.945312 26.726562 13.210938 26.929688 13.414062 27.03125 C 13.71875 27.179688 13.863281 27.210938 14.261719 27.210938 C 14.707031 27.21875 14.773438 27.199219 15.300781 26.929688 L 15.867188 26.644531 L 16.292969 26.894531 C 17.164062 27.40625 17.460938 27.511719 17.96875 27.511719 C 18.324219 27.511719 18.5 27.480469 18.769531 27.355469 C 19.394531 27.070312 19.835938 26.480469 19.914062 25.832031 L 19.949219 25.523438 L 20.304688 25.644531 C 20.742188 25.792969 21.269531 25.761719 21.738281 25.5625 C 22.355469 25.292969 22.875 24.539062 22.875 23.90625 L 22.875 23.699219 L 23.113281 23.761719 C 23.449219 23.855469 24.070312 23.789062 24.414062 23.617188 C 25.226562 23.226562 25.636719 22.367188 25.480469 21.40625 L 25.4375 21.15625 L 25.886719 20.9375 C 26.230469 20.769531 26.394531 20.644531 26.570312 20.414062 C 26.929688 19.929688 26.992188 19.554688 26.863281 18.507812 C 26.84375 18.367188 26.9375 18.300781 27.664062 17.867188 C 28.417969 17.429688 28.492188 17.398438 28.632812 17.476562 C 28.710938 17.519531 28.851562 17.554688 28.9375 17.5625 C 29.132812 17.5625 31.65625 16.125 31.855469 15.898438 L 32 15.742188 L 32 10.304688 C 32 5.476562 31.988281 4.855469 31.898438 4.71875 C 31.773438 4.53125 31.480469 4.425781 31.28125 4.5 C 31 4.605469 24.15625 8.574219 24.007812 8.71875 C 23.925781 8.800781 23.835938 8.96875 23.820312 9.09375 C 23.78125 9.320312 23.742188 9.351562 22.882812 9.84375 C 22.351562 10.148438 21.882812 10.46875 21.742188 10.613281 C 21.480469 10.90625 21.207031 11 20.648438 11 C 20.125 11 19.960938 10.929688 18.574219 10.132812 C 17.90625 9.75 17.195312 9.375 16.988281 9.304688 C 16.519531 9.148438 15.710938 9.132812 15.230469 9.273438 C 15.050781 9.332031 14.179688 9.78125 13.304688 10.28125 C 11.757812 11.175781 11.710938 11.195312 11.4375 11.15625 C 10.949219 11.082031 10.492188 10.875 10.25 10.613281 C 10.117188 10.46875 9.644531 10.144531 9.117188 9.84375 C 8.261719 9.351562 8.21875 9.3125 8.179688 9.101562 C 8.164062 8.976562 8.09375 8.820312 8.03125 8.75 C 7.855469 8.554688 5.65625 7.3125 5.488281 7.3125 C 5.132812 7.3125 4.925781 7.855469 5.1875 8.09375 C 5.257812 8.15625 5.710938 8.4375 6.199219 8.726562 C 6.695312 9.007812 7.085938 9.269531 7.082031 9.304688 C 7.054688 9.398438 3.054688 16.332031 2.976562 16.417969 C 2.925781 16.46875 2.664062 16.351562 1.925781 15.917969 L 0.9375 15.351562 L 0.9375 10.519531 C 0.9375 7.855469 0.957031 5.695312 0.988281 5.707031 C 1.011719 5.71875 1.574219 6.042969 2.230469 6.429688 C 2.894531 6.8125 3.492188 7.125 3.5625 7.125 C 3.90625 7.125 4.125 6.800781 3.992188 6.488281 C 3.9375 6.351562 3.59375 6.125 2.351562 5.414062 C 1.488281 4.917969 0.726562 4.5 0.65625 4.476562 C 0.585938 4.457031 0.445312 4.480469 0.332031 4.53125 Z M 31.0625 10.519531 L 31.0625 15.355469 L 30.101562 15.90625 C 29.570312 16.210938 29.113281 16.457031 29.082031 16.457031 C 29.054688 16.457031 28.851562 16.136719 28.625 15.757812 C 28.398438 15.367188 28.175781 15.03125 28.125 15 C 27.96875 14.898438 27.695312 14.929688 27.5625 15.0625 C 27.363281 15.261719 27.40625 15.53125 27.726562 16.074219 C 27.886719 16.34375 28.007812 16.582031 27.992188 16.59375 C 27.980469 16.605469 27.625 16.8125 27.210938 17.050781 L 26.449219 17.488281 L 24.59375 14.269531 C 23.574219 12.5 22.761719 11.023438 22.792969 11 C 22.9375 10.855469 24.273438 10.132812 24.3125 10.167969 C 24.335938 10.199219 24.792969 10.992188 25.335938 11.9375 C 25.875 12.882812 26.386719 13.71875 26.476562 13.792969 C 26.726562 14.023438 27.007812 13.976562 27.164062 13.675781 C 27.210938 13.574219 27.238281 13.4375 27.21875 13.367188 C 27.195312 13.304688 26.664062 12.355469 26.03125 11.261719 C 25.398438 10.175781 24.898438 9.261719 24.925781 9.238281 C 24.949219 9.21875 26.148438 8.519531 27.59375 7.679688 C 29.039062 6.851562 30.398438 6.0625 30.625 5.929688 C 30.851562 5.800781 31.039062 5.695312 31.050781 5.6875 C 31.054688 5.6875 31.0625 7.863281 31.0625 10.519531 Z M 16.835938 10.25 C 16.945312 10.289062 17.519531 10.601562 18.117188 10.949219 C 19.667969 11.84375 19.78125 11.886719 20.507812 11.925781 C 21.007812 11.949219 21.1875 11.929688 21.5625 11.820312 C 21.8125 11.742188 22.019531 11.6875 22.03125 11.699219 C 22.105469 11.792969 24.988281 16.84375 24.976562 16.855469 C 24.960938 16.867188 24.648438 16.699219 24.273438 16.480469 C 21.644531 14.945312 20.289062 14.1875 20.144531 14.1875 C 19.773438 14.1875 19.554688 14.648438 19.800781 14.925781 C 19.855469 14.992188 21.117188 15.742188 22.59375 16.59375 C 24.074219 17.445312 25.386719 18.207031 25.511719 18.289062 C 25.820312 18.480469 26 18.84375 26 19.257812 C 26 19.835938 25.625 20.210938 25.039062 20.21875 C 24.738281 20.21875 24.613281 20.15625 22.9375 19.1875 C 21.082031 18.113281 20.8125 18.007812 20.613281 18.230469 C 20.425781 18.4375 20.414062 18.648438 20.574219 18.835938 C 20.65625 18.925781 21.460938 19.429688 22.375 19.949219 C 24.3125 21.070312 24.257812 21.03125 24.429688 21.3125 C 24.820312 21.957031 24.332031 22.875 23.59375 22.875 C 23.28125 22.875 23.238281 22.851562 21.175781 21.664062 C 20.175781 21.085938 19.5 20.730469 19.394531 20.730469 C 19.199219 20.738281 18.9375 21 18.9375 21.195312 C 18.9375 21.40625 19.230469 21.632812 20.429688 22.3125 C 21.75 23.070312 21.886719 23.199219 21.925781 23.738281 C 21.945312 24.03125 21.925781 24.132812 21.800781 24.304688 C 21.550781 24.675781 21.351562 24.78125 20.917969 24.78125 C 20.539062 24.78125 20.511719 24.769531 19.3125 24.070312 C 17.988281 23.292969 17.773438 23.226562 17.554688 23.492188 C 17.292969 23.820312 17.4375 24.070312 18.117188 24.460938 C 18.386719 24.617188 18.679688 24.832031 18.769531 24.9375 C 19.367188 25.648438 18.664062 26.773438 17.75 26.570312 C 17.625 26.542969 17.292969 26.386719 17.007812 26.21875 C 16.523438 25.945312 16.492188 25.914062 16.53125 25.757812 C 16.761719 24.851562 16.617188 24.179688 16.070312 23.632812 C 15.65625 23.21875 15.3125 23.09375 14.605469 23.09375 C 14.21875 23.09375 14 23.070312 14 23.023438 C 14 22.988281 13.957031 22.820312 13.90625 22.636719 C 13.679688 21.894531 12.914062 21.304688 12.136719 21.289062 L 11.761719 21.28125 L 11.730469 20.929688 C 11.71875 20.742188 11.636719 20.445312 11.5625 20.261719 C 11.40625 19.898438 10.929688 19.417969 10.59375 19.273438 C 10.476562 19.226562 10.375 19.175781 10.375 19.164062 C 10.375 19.144531 10.417969 18.957031 10.476562 18.742188 C 10.601562 18.25 10.554688 17.898438 10.3125 17.394531 C 9.980469 16.71875 9.324219 16.3125 8.570312 16.3125 C 8.148438 16.3125 7.792969 16.425781 7.355469 16.695312 C 7.1875 16.792969 7.039062 16.875 7.023438 16.863281 C 7.007812 16.84375 9.894531 11.789062 9.976562 11.695312 C 9.992188 11.675781 10.667969 11.925781 10.738281 11.976562 C 10.75 11.980469 10.699219 12.164062 10.617188 12.367188 C 10.4375 12.867188 10.46875 13.449219 10.707031 13.914062 C 10.914062 14.3125 11.414062 14.769531 11.792969 14.898438 C 12.148438 15.023438 12.773438 15.03125 13.105469 14.914062 C 13.238281 14.867188 13.980469 14.460938 14.757812 14.011719 C 15.53125 13.5625 16.230469 13.164062 16.320312 13.125 C 16.457031 13.0625 16.554688 13.105469 17.226562 13.492188 C 18.1875 14.050781 18.257812 14.070312 18.507812 13.820312 C 18.664062 13.65625 18.695312 13.585938 18.65625 13.449219 C 18.59375 13.199219 18.570312 13.175781 17.636719 12.644531 C 16.382812 11.925781 16.523438 11.90625 14.4375 13.113281 C 12.894531 14 12.761719 14.0625 12.460938 14.0625 C 11.90625 14.0625 11.492188 13.675781 11.457031 13.113281 C 11.414062 12.492188 11.492188 12.417969 13.3125 11.355469 C 14.1875 10.84375 15.03125 10.367188 15.179688 10.300781 C 15.667969 10.074219 16.335938 10.054688 16.835938 10.25 Z M 8.445312 10.539062 C 8.835938 10.761719 9.179688 10.96875 9.207031 11 C 9.238281 11.023438 8.425781 12.5 7.40625 14.269531 L 5.550781 17.488281 L 4.789062 17.050781 C 4.375 16.8125 4.019531 16.605469 4.011719 16.59375 C 3.988281 16.574219 7.695312 10.125 7.71875 10.125 C 7.730469 10.125 8.054688 10.3125 8.445312 10.539062 Z M 9.0625 17.367188 C 9.65625 17.679688 9.789062 18.492188 9.320312 18.96875 C 9.21875 19.074219 8.78125 19.363281 8.335938 19.613281 C 7.648438 20 7.488281 20.0625 7.230469 20.0625 C 6.863281 20.0625 6.617188 19.945312 6.398438 19.65625 C 6.167969 19.34375 6.132812 18.960938 6.3125 18.59375 C 6.4375 18.34375 6.53125 18.261719 7.175781 17.882812 C 7.582031 17.648438 7.992188 17.414062 8.09375 17.355469 C 8.351562 17.21875 8.800781 17.226562 9.0625 17.367188 Z M 10.257812 20.164062 C 10.5 20.28125 10.738281 20.59375 10.789062 20.84375 C 10.894531 21.40625 10.648438 21.769531 9.855469 22.21875 C 9.21875 22.585938 8.851562 22.644531 8.46875 22.425781 C 7.9375 22.113281 7.78125 21.394531 8.144531 20.917969 C 8.304688 20.699219 9.292969 20.101562 9.570312 20.042969 C 9.761719 20.007812 10.050781 20.054688 10.257812 20.164062 Z M 12.59375 22.375 C 12.992188 22.617188 13.167969 23.199219 12.976562 23.644531 C 12.863281 23.914062 12.679688 24.070312 12.09375 24.40625 C 11.707031 24.625 11.539062 24.6875 11.3125 24.6875 C 10.851562 24.6875 10.4375 24.375 10.3125 23.917969 C 10.226562 23.617188 10.324219 23.21875 10.550781 22.988281 C 10.726562 22.792969 11.480469 22.324219 11.742188 22.242188 C 11.96875 22.175781 12.363281 22.230469 12.59375 22.375 Z M 15.179688 24.132812 C 15.46875 24.304688 15.605469 24.480469 15.679688 24.789062 C 15.8125 25.3125 15.539062 25.769531 14.867188 26.113281 C 14.425781 26.34375 14.199219 26.355469 13.835938 26.195312 C 13.492188 26.039062 13.292969 25.75 13.261719 25.34375 C 13.21875 24.832031 13.417969 24.542969 14.0625 24.195312 C 14.480469 23.960938 14.867188 23.9375 15.179688 24.132812 Z M 15.179688 24.132812 "/>
</g>
</svg>
