<?xml version="1.0" encoding="UTF-8"?>
<svg xmlns="http://www.w3.org/2000/svg" xmlns:xlink="http://www.w3.org/1999/xlink" width="32px" height="32px" viewBox="0 0 32 32" version="1.1">
<g id="surface1">
<path style=" stroke:none;fill-rule:nonzero;fill:rgb(0%,0%,0%);fill-opacity:1;" d="M 14.84375 2.039062 C 12.914062 2.238281 11.082031 2.773438 9.507812 3.605469 C 8.914062 3.914062 7.898438 4.554688 7.5 4.875 L 7.34375 5 L 10.695312 5 L 10.84375 5.15625 L 11 5.304688 L 11 6.90625 C 11 7.78125 11.011719 8.5 11.023438 8.5 C 11.042969 8.5 11.230469 8.386719 11.449219 8.257812 C 11.667969 8.117188 12.136719 7.882812 12.5 7.726562 C 14.875 6.707031 17.570312 6.773438 19.929688 7.914062 C 21.03125 8.445312 21.070312 8.625 20.269531 9.445312 L 19.726562 10 L 26 10 L 26 3.71875 L 25.488281 4.230469 C 24.917969 4.789062 24.742188 4.898438 24.5625 4.84375 C 24.492188 4.824219 24.125 4.59375 23.742188 4.335938 C 22.132812 3.261719 20.238281 2.519531 18.21875 2.179688 C 17.492188 2.054688 15.46875 1.976562 14.84375 2.039062 Z M 14.84375 2.039062 "/>
<path style=" stroke:none;fill-rule:nonzero;fill:rgb(0%,0%,0%);fill-opacity:1;" d="M 4.28125 6.5625 C 5 7.28125 5 7.289062 4.351562 8.25 C 3.230469 9.917969 2.5 11.8125 2.144531 13.96875 C 1.988281 14.929688 1.988281 17.070312 2.144531 18.03125 C 2.40625 19.625 2.914062 21.175781 3.601562 22.488281 C 3.90625 23.070312 4.550781 24.085938 4.875 24.5 L 5 24.65625 L 5 21.304688 L 5.15625 21.15625 L 5.304688 21 L 6.90625 21 C 7.78125 21 8.5 20.988281 8.5 20.976562 C 8.5 20.960938 8.375 20.742188 8.21875 20.480469 C 7.375 19.085938 6.945312 17.324219 7.019531 15.625 C 7.082031 14.320312 7.355469 13.226562 7.914062 12.070312 C 8.449219 10.96875 8.625 10.929688 9.445312 11.730469 L 10 12.273438 L 10 6 L 3.71875 6 Z M 4.28125 6.5625 "/>
<path style=" stroke:none;fill-rule:nonzero;fill:rgb(0%,0%,0%);fill-opacity:1;" d="M 27 9.019531 L 27 10.695312 L 26.84375 10.84375 L 26.695312 11 L 25.09375 11 C 24.21875 11 23.5 11.011719 23.5 11.023438 C 23.5 11.039062 23.617188 11.242188 23.761719 11.476562 C 25.050781 13.59375 25.34375 16.429688 24.53125 18.855469 C 24.3125 19.5 23.835938 20.476562 23.65625 20.664062 C 23.367188 20.949219 23.175781 20.875 22.554688 20.269531 L 22 19.726562 L 22 26 L 28.28125 26 L 27.71875 25.4375 C 27.007812 24.71875 27.007812 24.707031 27.605469 23.8125 C 28.738281 22.132812 29.460938 20.300781 29.824219 18.1875 C 30.007812 17.136719 30.019531 15.070312 29.855469 14 C 29.605469 12.425781 29.085938 10.824219 28.398438 9.511719 C 28.09375 8.929688 27.449219 7.914062 27.125 7.5 L 27 7.34375 Z M 27 9.019531 "/>
<path style=" stroke:none;fill-rule:nonzero;fill:rgb(0%,0%,0%);fill-opacity:1;" d="M 6 25.136719 L 6 28.28125 L 6.5625 27.71875 C 7.28125 27.007812 7.292969 27.007812 8.1875 27.605469 C 9.867188 28.738281 11.707031 29.460938 13.8125 29.824219 C 14.757812 29.988281 16.863281 30.019531 17.78125 29.886719 C 20.039062 29.5625 22 28.824219 23.75 27.648438 C 24.074219 27.429688 24.414062 27.195312 24.5 27.125 L 24.65625 27 L 21.304688 27 L 21.15625 26.84375 L 21 26.695312 L 21 23.492188 L 20.613281 23.71875 C 19.675781 24.261719 18.832031 24.585938 17.75 24.820312 C 16.824219 25.019531 15.132812 25.023438 14.238281 24.824219 C 13.125 24.582031 11.679688 24 11.335938 23.65625 C 11.050781 23.367188 11.125 23.175781 11.730469 22.554688 L 12.273438 22 L 6 22 Z M 6 25.136719 "/>
</g>
</svg>
