<?xml version="1.0" encoding="UTF-8"?>
<svg xmlns="http://www.w3.org/2000/svg" xmlns:xlink="http://www.w3.org/1999/xlink" width="28px" height="28px" viewBox="0 0 28 28" version="1.1">
<g id="surface1">
<path style=" stroke:none;fill-rule:nonzero;fill:rgb(0%,0%,0%);fill-opacity:1;" d="M 13.261719 1.789062 C 12.660156 1.871094 11.882812 2.160156 11.375 2.488281 C 10.171875 3.265625 9.757812 4.460938 10.039062 6.347656 C 10.15625 7.113281 10.066406 7.714844 9.757812 8.3125 C 9.640625 8.53125 9.628906 8.589844 9.683594 8.738281 C 9.765625 8.972656 9.875 9.023438 10.324219 9.023438 L 10.703125 9.023438 L 10.910156 9.515625 C 11.289062 10.429688 11.851562 11.058594 12.429688 11.214844 C 12.828125 11.324219 13.394531 11.183594 13.875 10.855469 C 13.988281 10.777344 14.105469 10.71875 14.132812 10.71875 C 14.21875 10.71875 14.113281 11.578125 13.972656 12.027344 C 13.644531 13.054688 12.902344 13.792969 11.703125 14.261719 C 10.515625 14.738281 10.039062 15.269531 10.035156 16.132812 C 10.035156 16.484375 10.0625 16.597656 10.210938 16.914062 C 10.308594 17.121094 10.441406 17.363281 10.503906 17.449219 C 10.570312 17.542969 10.613281 17.621094 10.605469 17.625 C 10.59375 17.632812 10.296875 17.777344 9.949219 17.949219 C 8.34375 18.742188 7.433594 19.808594 7.164062 21.207031 C 7.054688 21.742188 7.121094 22.777344 7.296875 23.378906 C 7.453125 23.910156 7.890625 24.882812 7.972656 24.882812 C 8.105469 24.882812 9.230469 24.640625 9.925781 24.460938 C 11.375 24.09375 12.398438 23.679688 13.316406 23.082031 C 14.191406 22.515625 15.175781 22.0625 16.417969 21.65625 L 17.113281 21.425781 L 17.15625 21.222656 C 17.183594 21.113281 17.199219 20.753906 17.195312 20.425781 C 17.1875 19.902344 17.167969 19.765625 17.019531 19.359375 C 16.582031 18.140625 16.515625 17.933594 16.433594 17.472656 C 16.382812 17.199219 16.328125 16.675781 16.3125 16.296875 C 16.285156 15.679688 16.292969 15.601562 16.382812 15.492188 C 16.546875 15.296875 16.792969 15.273438 16.980469 15.4375 C 17.128906 15.5625 17.140625 15.589844 17.175781 16.257812 C 17.238281 17.175781 17.386719 17.871094 17.6875 18.609375 C 17.996094 19.375 18.125 20.074219 18.085938 20.738281 C 18.058594 21.1875 18.0625 21.21875 18.15625 21.21875 C 18.316406 21.21875 18.484375 21.433594 18.484375 21.640625 C 18.484375 21.871094 18.335938 22.015625 18.035156 22.09375 C 16.351562 22.519531 14.914062 23.105469 13.742188 23.847656 C 12.699219 24.515625 11.570312 24.960938 9.882812 25.375 C 9.402344 25.496094 8.957031 25.59375 8.902344 25.59375 C 8.519531 25.59375 9.402344 25.9375 10.226562 26.113281 C 10.804688 26.238281 11.945312 26.277344 12.632812 26.199219 C 14.898438 25.945312 17.457031 24.859375 19.90625 23.128906 C 20.191406 22.925781 20.523438 22.671875 20.644531 22.570312 L 20.863281 22.378906 L 20.878906 21.710938 C 20.90625 20.714844 20.6875 18.992188 20.234375 16.664062 C 20.148438 16.203125 20.011719 15.449219 19.929688 14.984375 C 19.5625 12.847656 19.191406 11.992188 18.097656 10.800781 C 17.375 10.007812 16.984375 9.335938 16.84375 8.601562 C 16.785156 8.300781 16.789062 8.234375 16.894531 7.917969 C 17.019531 7.535156 17.132812 6.585938 17.105469 6.128906 L 17.089844 5.835938 L 17.390625 5.746094 C 17.785156 5.636719 18.253906 5.191406 18.398438 4.785156 C 18.9375 3.214844 17.824219 1.488281 16.488281 1.832031 C 16.183594 1.914062 15.980469 2.019531 15.777344 2.199219 C 15.667969 2.292969 15.652344 2.292969 15.242188 2.082031 C 14.660156 1.792969 13.976562 1.691406 13.261719 1.789062 Z M 13.261719 1.789062 "/>
</g>
</svg>
