<?xml version="1.0" encoding="UTF-8"?>
<svg xmlns="http://www.w3.org/2000/svg" xmlns:xlink="http://www.w3.org/1999/xlink" width="32px" height="32px" viewBox="0 0 32 32" version="1.1">
<g id="surface1">
<path style=" stroke:none;fill-rule:nonzero;fill:rgb(0%,0%,0%);fill-opacity:1;" d="M 11.425781 2.957031 C 10.117188 3.5 9.054688 3.976562 8.960938 4.0625 C 8.71875 4.292969 8.625 4.570312 8.625 5.074219 C 8.625 5.914062 9.085938 6.585938 9.867188 6.882812 C 10.304688 7.042969 11.125 7.054688 11.8125 6.914062 C 12.375 6.789062 13.46875 6.457031 13.695312 6.335938 C 13.925781 6.21875 14.023438 5.917969 13.90625 5.6875 C 13.75 5.382812 13.492188 5.363281 12.804688 5.601562 C 11.625 6 10.554688 6.132812 10.148438 5.917969 C 9.851562 5.761719 9.644531 5.480469 9.59375 5.15625 C 9.574219 4.992188 9.574219 4.835938 9.605469 4.8125 C 9.632812 4.789062 10.632812 4.367188 11.820312 3.882812 L 13.976562 2.992188 L 17.007812 3.011719 L 20.03125 3.039062 L 20.59375 3.210938 C 20.90625 3.304688 22.0625 3.824219 23.21875 4.386719 C 26.304688 5.882812 26.738281 6 29.238281 6 L 30.695312 6 L 30.84375 5.84375 C 31.03125 5.664062 31.042969 5.382812 30.882812 5.179688 C 30.761719 5.03125 30.757812 5.03125 29.019531 4.992188 C 27.425781 4.957031 27.230469 4.945312 26.675781 4.792969 C 26.070312 4.632812 25.1875 4.25 23.488281 3.398438 C 22.070312 2.6875 21.332031 2.375 20.6875 2.199219 L 20.09375 2.039062 L 16.90625 2.019531 L 13.71875 2.007812 Z M 11.425781 2.957031 "/>
<path style=" stroke:none;fill-rule:nonzero;fill:rgb(0%,0%,0%);fill-opacity:1;" d="M 15.386719 4.4375 C 15.210938 4.511719 15.082031 4.820312 14.949219 5.449219 C 14.75 6.394531 15.050781 7.25 15.820312 7.960938 C 16.351562 8.457031 16.679688 8.632812 18.492188 9.382812 L 19.960938 9.988281 L 20.230469 10.398438 C 20.8125 11.261719 21.863281 12.007812 22.90625 12.28125 C 23.820312 12.523438 25.195312 12.457031 26.15625 12.125 C 26.492188 12.011719 26.6875 12 28.605469 12 L 30.695312 12 L 30.84375 11.84375 C 31.050781 11.644531 31.050781 11.355469 30.84375 11.15625 L 30.695312 11 L 28.519531 11 C 26.382812 11 26.335938 11.007812 25.898438 11.148438 C 23.882812 11.835938 21.792969 11.195312 20.9375 9.625 L 20.71875 9.21875 L 18.992188 8.5 C 16.75 7.570312 16.398438 7.34375 16.050781 6.664062 C 15.925781 6.417969 15.851562 5.695312 15.945312 5.601562 C 15.960938 5.582031 17.15625 6.054688 18.605469 6.65625 C 20.054688 7.257812 21.304688 7.75 21.386719 7.75 C 21.75 7.75 21.96875 7.195312 21.710938 6.9375 C 21.5625 6.789062 15.804688 4.367188 15.617188 4.382812 C 15.570312 4.382812 15.46875 4.40625 15.386719 4.4375 Z M 15.386719 4.4375 "/>
<path style=" stroke:none;fill-rule:nonzero;fill:rgb(0%,0%,0%);fill-opacity:1;" d="M 9.460938 7.988281 C 9.09375 8.042969 8.898438 8.617188 9.164062 8.867188 C 9.480469 9.179688 10.0625 8.945312 10.0625 8.5 C 10.0625 8.394531 10.039062 8.25 10 8.1875 C 9.929688 8.054688 9.65625 7.957031 9.460938 7.988281 Z M 9.460938 7.988281 "/>
<path style=" stroke:none;fill-rule:nonzero;fill:rgb(0%,0%,0%);fill-opacity:1;" d="M 7.761719 9.582031 C 7.457031 9.757812 6.664062 11.074219 6.25 12.113281 C 5.632812 13.664062 5.382812 15.457031 5.5625 17.09375 C 5.65625 17.925781 5.742188 18.304688 5.882812 18.445312 C 6.042969 18.605469 6.398438 18.601562 6.570312 18.429688 C 6.71875 18.28125 6.710938 18.15625 6.554688 16.96875 C 6.46875 16.300781 6.511719 15.082031 6.65625 14.28125 C 6.867188 13.09375 7.398438 11.773438 8.09375 10.742188 C 8.542969 10.074219 8.574219 9.9375 8.324219 9.6875 C 8.117188 9.488281 7.988281 9.460938 7.761719 9.582031 Z M 7.761719 9.582031 "/>
<path style=" stroke:none;fill-rule:nonzero;fill:rgb(0%,0%,0%);fill-opacity:1;" d="M 14.15625 11.15625 C 14 11.304688 14 11.304688 14 12.65625 L 14 14 L 12.65625 14 C 11.304688 14 11.304688 14 11.15625 14.15625 L 11 14.304688 L 11 17.695312 L 11.15625 17.84375 C 11.304688 18 11.304688 18 12.65625 18 L 14 18 L 14 19.34375 C 14 20.695312 14 20.695312 14.15625 20.84375 L 14.304688 21 L 17.695312 21 L 17.84375 20.84375 C 18 20.695312 18 20.695312 18 19.34375 L 18 18 L 19.34375 18 C 20.695312 18 20.695312 18 20.84375 17.84375 L 21 17.695312 L 21 14.304688 L 20.84375 14.15625 C 20.695312 14 20.695312 14 19.34375 14 L 18 14 L 18 12.65625 C 18 11.304688 18 11.304688 17.84375 11.15625 L 17.695312 11 L 14.304688 11 Z M 17 13.34375 C 17 14.695312 17 14.695312 17.15625 14.84375 C 17.304688 15 17.304688 15 18.65625 15 L 20 15 L 20 17 L 18.65625 17 C 16.855469 17 17 16.855469 17 18.65625 L 17 20 L 15 20 L 15 18.65625 C 15 16.855469 15.144531 17 13.34375 17 L 12 17 L 12 15 L 13.34375 15 C 15.144531 15 15 15.144531 15 13.34375 L 15 12 L 17 12 Z M 17 13.34375 "/>
<path style=" stroke:none;fill-rule:nonzero;fill:rgb(0%,0%,0%);fill-opacity:1;" d="M 25.550781 13.53125 C 25.3125 13.664062 25.28125 13.855469 25.382812 14.519531 C 25.5 15.320312 25.488281 16.945312 25.351562 17.679688 C 25.117188 18.9375 24.59375 20.226562 23.882812 21.292969 C 23.65625 21.632812 23.5 21.929688 23.5 22.03125 C 23.5 22.257812 23.757812 22.5 24.007812 22.5 C 24.269531 22.5 24.492188 22.25 25 21.394531 C 25.675781 20.261719 26.105469 19.105469 26.351562 17.78125 C 26.582031 16.507812 26.457031 13.925781 26.144531 13.617188 C 25.980469 13.457031 25.742188 13.425781 25.550781 13.53125 Z M 25.550781 13.53125 "/>
<path style=" stroke:none;fill-rule:nonzero;fill:rgb(0%,0%,0%);fill-opacity:1;" d="M 6.5625 19.679688 C 6.269531 19.75 5.90625 19.84375 5.757812 19.898438 C 5.53125 19.980469 5.148438 20 3.394531 20 L 1.304688 20 L 1.15625 20.15625 C 0.949219 20.355469 0.949219 20.644531 1.15625 20.84375 L 1.304688 21 L 3.480469 21 C 5.539062 21 5.679688 20.992188 6.03125 20.867188 C 8.070312 20.148438 10.195312 20.78125 11.0625 22.375 L 11.28125 22.773438 L 12.9375 23.46875 C 13.851562 23.851562 14.742188 24.242188 14.925781 24.335938 C 15.695312 24.761719 16.082031 25.304688 16.085938 25.976562 C 16.09375 26.1875 16.074219 26.382812 16.054688 26.398438 C 16.039062 26.425781 15.882812 26.382812 15.710938 26.304688 C 14.195312 25.65625 10.726562 24.25 10.632812 24.25 C 10.5625 24.25 10.429688 24.320312 10.335938 24.394531 C 10.132812 24.574219 10.105469 24.886719 10.289062 25.0625 C 10.417969 25.199219 16.207031 27.625 16.386719 27.625 C 16.636719 27.625 16.8125 27.429688 16.9375 27.011719 C 17.304688 25.820312 17.070312 24.867188 16.195312 24.042969 C 15.679688 23.5625 15.261719 23.34375 13.460938 22.601562 L 12.039062 22.011719 L 11.769531 21.601562 C 11.179688 20.730469 10.15625 20.007812 9.09375 19.71875 C 8.492188 19.554688 7.207031 19.539062 6.5625 19.679688 Z M 6.5625 19.679688 "/>
<path style=" stroke:none;fill-rule:nonzero;fill:rgb(0%,0%,0%);fill-opacity:1;" d="M 22.273438 23.117188 C 21.886719 23.355469 21.976562 23.957031 22.40625 24 C 22.664062 24.03125 22.761719 23.992188 22.90625 23.835938 C 23.15625 23.570312 23.09375 23.242188 22.769531 23.074219 C 22.582031 22.976562 22.5 22.980469 22.273438 23.117188 Z M 22.273438 23.117188 "/>
<path style=" stroke:none;fill-rule:nonzero;fill:rgb(0%,0%,0%);fill-opacity:1;" d="M 20.84375 24.976562 C 20.207031 25.0625 19.148438 25.335938 18.511719 25.574219 C 18.144531 25.710938 17.96875 25.949219 18.039062 26.21875 C 18.132812 26.59375 18.480469 26.644531 19.195312 26.398438 C 20.375 26 21.445312 25.867188 21.851562 26.082031 C 22.148438 26.238281 22.355469 26.519531 22.40625 26.84375 C 22.425781 27.007812 22.425781 27.164062 22.394531 27.1875 C 22.367188 27.210938 21.375 27.632812 20.1875 28.117188 L 18.023438 29.007812 L 15 28.988281 L 11.96875 28.960938 L 11.414062 28.792969 C 11.105469 28.699219 9.925781 28.167969 8.789062 27.617188 C 5.6875 26.113281 5.261719 26 2.761719 26 L 1.304688 26 L 1.15625 26.15625 C 0.96875 26.335938 0.957031 26.617188 1.117188 26.820312 C 1.238281 26.96875 1.242188 26.96875 2.980469 27.007812 C 5.179688 27.054688 5.394531 27.105469 7.210938 27.976562 C 10.382812 29.492188 10.699219 29.636719 11.292969 29.792969 L 11.90625 29.960938 L 15.070312 29.988281 L 18.230469 30.007812 L 20.539062 29.054688 C 22.988281 28.050781 23.1875 27.9375 23.320312 27.492188 C 23.429688 27.125 23.363281 26.394531 23.1875 26.039062 C 22.992188 25.65625 22.582031 25.289062 22.164062 25.132812 C 21.832031 25.007812 21.175781 24.929688 20.84375 24.976562 Z M 20.84375 24.976562 "/>
</g>
</svg>
