<svg xmlns="http://www.w3.org/2000/svg" width="65" height="64" viewBox="0 0 65 64" fill="none"><circle cx="32.1572" cy="32" r="32" fill="#BF3F40"></circle><mask id="mask0_81_794" style="mask-type:luminance" maskUnits="userSpaceOnUse" x="0" y="0" width="65" height="64"><circle cx="32.1572" cy="32" r="32" fill="white"></circle></mask><g mask="url(#mask0_81_794)"><rect x="0.157227" y="11.0933" width="64" height="41.8133" fill="#F1A40C"></rect><rect x="56.4771" y="16.0237" width="7.68" height="4.93037" fill="#281527"></rect><rect x="56.4771" y="25.8843" width="7.68" height="4.93037" fill="#28965C"></rect><rect x="46.5327" y="28.3496" width="10.24" height="7.39556" fill="#28965C"></rect><rect x="37.0801" y="30.8147" width="9.84615" height="2.46519" fill="#28965C"></rect><rect x="56.4771" y="33.28" width="7.68" height="4.93037" fill="#28965C"></rect><rect x="46.5327" y="18.4888" width="10.24" height="4.93037" fill="#281527"></rect><rect x="36.6865" y="20.9541" width="10.24" height="4.93037" fill="#281527"></rect><rect x="36.6865" y="11.0933" width="10.24" height="4.93037" fill="#28965C"></rect><rect x="46.5327" y="11.0933" width="10.24" height="2.46519" fill="#28965C"></rect><rect x="26.8403" y="13.5583" width="10.24" height="4.93037" fill="#28965C"></rect><rect x="26.8403" y="45.511" width="10.24" height="4.93037" fill="#28965C"></rect><rect x="36.6865" y="47.9763" width="10.24" height="4.93037" fill="#28965C"></rect><rect x="46.5327" y="50.4414" width="10.24" height="2.46519" fill="#28965C"></rect><rect x="16.9941" y="16.0237" width="10.24" height="4.93037" fill="#28965C"></rect><rect x="16.9941" y="43.0459" width="10.24" height="4.93037" fill="#28965C"></rect><rect x="9.70801" y="18.4888" width="7.68" height="4.93037" fill="#28965C"></rect><rect x="9.70801" y="40.5806" width="7.68" height="4.93037" fill="#28965C"></rect><rect x="0.157227" y="20.9541" width="9.84615" height="4.93037" fill="#28965C"></rect><rect x="0.157227" y="38.1155" width="9.84615" height="4.93037" fill="#28965C"></rect><rect x="26.8403" y="23.4192" width="10.24" height="4.93037" fill="#281527"></rect><rect x="16.9941" y="25.8843" width="10.24" height="4.93037" fill="#281527"></rect><rect x="0.157227" y="11.0933" width="9.84615" height="4.93037" fill="#281527"></rect><rect x="0.157227" y="47.9763" width="9.84615" height="4.93037" fill="#281527"></rect><rect x="9.70801" y="11.0933" width="7.68" height="2.46519" fill="#281527"></rect><rect x="9.70801" y="50.4414" width="7.68" height="2.46519" fill="#281527"></rect><rect x="16.9941" y="33.28" width="10.24" height="4.93037" fill="#281527"></rect><rect x="26.8403" y="35.7451" width="10.24" height="4.93037" fill="#281527"></rect><rect x="36.6865" y="38.2102" width="10.24" height="4.93037" fill="#281527"></rect><rect x="46.5327" y="40.6755" width="10.24" height="4.93037" fill="#281527"></rect><rect x="56.4771" y="43.1406" width="7.68" height="4.93037" fill="#281527"></rect><rect x="9.70801" y="28.3496" width="7.68" height="7.39556" fill="#281527"></rect><rect x="0.157227" y="30.8147" width="9.84615" height="2.46519" fill="#281527"></rect></g></svg>